<?xml version="1.0" encoding="utf-8" standalone="no"?>
<!DOCTYPE svg PUBLIC "-//W3C//DTD SVG 1.1//EN"
  "http://www.w3.org/Graphics/SVG/1.1/DTD/svg11.dtd">
<svg xmlns:xlink="http://www.w3.org/1999/xlink" width="460.8pt" height="345.6pt" viewBox="0 0 460.8 345.6" xmlns="http://www.w3.org/2000/svg" version="1.1">
 <metadata>
  <rdf:RDF xmlns:dc="http://purl.org/dc/elements/1.1/" xmlns:cc="http://creativecommons.org/ns#" xmlns:rdf="http://www.w3.org/1999/02/22-rdf-syntax-ns#">
   <cc:Work>
    <dc:type rdf:resource="http://purl.org/dc/dcmitype/StillImage"/>
    <dc:date>2024-11-11T17:43:16.394406</dc:date>
    <dc:format>image/svg+xml</dc:format>
    <dc:creator>
     <cc:Agent>
      <dc:title>Matplotlib v3.8.2, https://matplotlib.org/</dc:title>
     </cc:Agent>
    </dc:creator>
   </cc:Work>
  </rdf:RDF>
 </metadata>
 <defs>
  <style type="text/css">*{stroke-linejoin: round; stroke-linecap: butt}</style>
 </defs>
 <g id="figure_1">
  <g id="patch_1">
   <path d="M 0 345.6 
L 460.8 345.6 
L 460.8 0 
L 0 0 
z
" style="fill: #ffffff"/>
  </g>
  <g id="axes_1">
   <g id="patch_2">
    <path d="M 57.44 303.64 
L 450 303.64 
L 450 10.8 
L 57.44 10.8 
z
" style="fill: #ffffff"/>
   </g>
   <g id="matplotlib.axis_1">
    <g id="xtick_1">
     <g id="line2d_1">
      <defs>
       <path id="m629750091d" d="M 0 0 
L 0 3.5 
" style="stroke: #000000; stroke-width: 0.8"/>
      </defs>
      <g>
       <use xlink:href="#m629750091d" x="61.876849" y="303.64" style="stroke: #000000; stroke-width: 0.8"/>
      </g>
     </g>
     <g id="text_1">
      <!-- −160000 -->
      <g transform="translate(38.599506 318.238437) scale(0.1 -0.1)">
       <defs>
        <path id="DejaVuSans-2212" d="M 678 2272 
L 4684 2272 
L 4684 1741 
L 678 1741 
L 678 2272 
z
" transform="scale(0.015625)"/>
        <path id="DejaVuSans-31" d="M 794 531 
L 1825 531 
L 1825 4091 
L 703 3866 
L 703 4441 
L 1819 4666 
L 2450 4666 
L 2450 531 
L 3481 531 
L 3481 0 
L 794 0 
L 794 531 
z
" transform="scale(0.015625)"/>
        <path id="DejaVuSans-36" d="M 2113 2584 
Q 1688 2584 1439 2293 
Q 1191 2003 1191 1497 
Q 1191 994 1439 701 
Q 1688 409 2113 409 
Q 2538 409 2786 701 
Q 3034 994 3034 1497 
Q 3034 2003 2786 2293 
Q 2538 2584 2113 2584 
z
M 3366 4563 
L 3366 3988 
Q 3128 4100 2886 4159 
Q 2644 4219 2406 4219 
Q 1781 4219 1451 3797 
Q 1122 3375 1075 2522 
Q 1259 2794 1537 2939 
Q 1816 3084 2150 3084 
Q 2853 3084 3261 2657 
Q 3669 2231 3669 1497 
Q 3669 778 3244 343 
Q 2819 -91 2113 -91 
Q 1303 -91 875 529 
Q 447 1150 447 2328 
Q 447 3434 972 4092 
Q 1497 4750 2381 4750 
Q 2619 4750 2861 4703 
Q 3103 4656 3366 4563 
z
" transform="scale(0.015625)"/>
        <path id="DejaVuSans-30" d="M 2034 4250 
Q 1547 4250 1301 3770 
Q 1056 3291 1056 2328 
Q 1056 1369 1301 889 
Q 1547 409 2034 409 
Q 2525 409 2770 889 
Q 3016 1369 3016 2328 
Q 3016 3291 2770 3770 
Q 2525 4250 2034 4250 
z
M 2034 4750 
Q 2819 4750 3233 4129 
Q 3647 3509 3647 2328 
Q 3647 1150 3233 529 
Q 2819 -91 2034 -91 
Q 1250 -91 836 529 
Q 422 1150 422 2328 
Q 422 3509 836 4129 
Q 1250 4750 2034 4750 
z
" transform="scale(0.015625)"/>
       </defs>
       <use xlink:href="#DejaVuSans-2212"/>
       <use xlink:href="#DejaVuSans-31" x="83.789062"/>
       <use xlink:href="#DejaVuSans-36" x="147.412109"/>
       <use xlink:href="#DejaVuSans-30" x="211.035156"/>
       <use xlink:href="#DejaVuSans-30" x="274.658203"/>
       <use xlink:href="#DejaVuSans-30" x="338.28125"/>
       <use xlink:href="#DejaVuSans-30" x="401.904297"/>
      </g>
     </g>
    </g>
    <g id="xtick_2">
     <g id="line2d_2">
      <g>
       <use xlink:href="#m629750091d" x="107.538397" y="303.64" style="stroke: #000000; stroke-width: 0.8"/>
      </g>
     </g>
     <g id="text_2">
      <!-- −140000 -->
      <g transform="translate(84.261053 318.238437) scale(0.1 -0.1)">
       <defs>
        <path id="DejaVuSans-34" d="M 2419 4116 
L 825 1625 
L 2419 1625 
L 2419 4116 
z
M 2253 4666 
L 3047 4666 
L 3047 1625 
L 3713 1625 
L 3713 1100 
L 3047 1100 
L 3047 0 
L 2419 0 
L 2419 1100 
L 313 1100 
L 313 1709 
L 2253 4666 
z
" transform="scale(0.015625)"/>
       </defs>
       <use xlink:href="#DejaVuSans-2212"/>
       <use xlink:href="#DejaVuSans-31" x="83.789062"/>
       <use xlink:href="#DejaVuSans-34" x="147.412109"/>
       <use xlink:href="#DejaVuSans-30" x="211.035156"/>
       <use xlink:href="#DejaVuSans-30" x="274.658203"/>
       <use xlink:href="#DejaVuSans-30" x="338.28125"/>
       <use xlink:href="#DejaVuSans-30" x="401.904297"/>
      </g>
     </g>
    </g>
    <g id="xtick_3">
     <g id="line2d_3">
      <g>
       <use xlink:href="#m629750091d" x="153.199944" y="303.64" style="stroke: #000000; stroke-width: 0.8"/>
      </g>
     </g>
     <g id="text_3">
      <!-- −120000 -->
      <g transform="translate(129.9226 318.238437) scale(0.1 -0.1)">
       <defs>
        <path id="DejaVuSans-32" d="M 1228 531 
L 3431 531 
L 3431 0 
L 469 0 
L 469 531 
Q 828 903 1448 1529 
Q 2069 2156 2228 2338 
Q 2531 2678 2651 2914 
Q 2772 3150 2772 3378 
Q 2772 3750 2511 3984 
Q 2250 4219 1831 4219 
Q 1534 4219 1204 4116 
Q 875 4013 500 3803 
L 500 4441 
Q 881 4594 1212 4672 
Q 1544 4750 1819 4750 
Q 2544 4750 2975 4387 
Q 3406 4025 3406 3419 
Q 3406 3131 3298 2873 
Q 3191 2616 2906 2266 
Q 2828 2175 2409 1742 
Q 1991 1309 1228 531 
z
" transform="scale(0.015625)"/>
       </defs>
       <use xlink:href="#DejaVuSans-2212"/>
       <use xlink:href="#DejaVuSans-31" x="83.789062"/>
       <use xlink:href="#DejaVuSans-32" x="147.412109"/>
       <use xlink:href="#DejaVuSans-30" x="211.035156"/>
       <use xlink:href="#DejaVuSans-30" x="274.658203"/>
       <use xlink:href="#DejaVuSans-30" x="338.28125"/>
       <use xlink:href="#DejaVuSans-30" x="401.904297"/>
      </g>
     </g>
    </g>
    <g id="xtick_4">
     <g id="line2d_4">
      <g>
       <use xlink:href="#m629750091d" x="198.861491" y="303.64" style="stroke: #000000; stroke-width: 0.8"/>
      </g>
     </g>
     <g id="text_4">
      <!-- −100000 -->
      <g transform="translate(175.584147 318.238437) scale(0.1 -0.1)">
       <use xlink:href="#DejaVuSans-2212"/>
       <use xlink:href="#DejaVuSans-31" x="83.789062"/>
       <use xlink:href="#DejaVuSans-30" x="147.412109"/>
       <use xlink:href="#DejaVuSans-30" x="211.035156"/>
       <use xlink:href="#DejaVuSans-30" x="274.658203"/>
       <use xlink:href="#DejaVuSans-30" x="338.28125"/>
       <use xlink:href="#DejaVuSans-30" x="401.904297"/>
      </g>
     </g>
    </g>
    <g id="xtick_5">
     <g id="line2d_5">
      <g>
       <use xlink:href="#m629750091d" x="244.523038" y="303.64" style="stroke: #000000; stroke-width: 0.8"/>
      </g>
     </g>
     <g id="text_5">
      <!-- −80000 -->
      <g transform="translate(224.426944 318.238437) scale(0.1 -0.1)">
       <defs>
        <path id="DejaVuSans-38" d="M 2034 2216 
Q 1584 2216 1326 1975 
Q 1069 1734 1069 1313 
Q 1069 891 1326 650 
Q 1584 409 2034 409 
Q 2484 409 2743 651 
Q 3003 894 3003 1313 
Q 3003 1734 2745 1975 
Q 2488 2216 2034 2216 
z
M 1403 2484 
Q 997 2584 770 2862 
Q 544 3141 544 3541 
Q 544 4100 942 4425 
Q 1341 4750 2034 4750 
Q 2731 4750 3128 4425 
Q 3525 4100 3525 3541 
Q 3525 3141 3298 2862 
Q 3072 2584 2669 2484 
Q 3125 2378 3379 2068 
Q 3634 1759 3634 1313 
Q 3634 634 3220 271 
Q 2806 -91 2034 -91 
Q 1263 -91 848 271 
Q 434 634 434 1313 
Q 434 1759 690 2068 
Q 947 2378 1403 2484 
z
M 1172 3481 
Q 1172 3119 1398 2916 
Q 1625 2713 2034 2713 
Q 2441 2713 2670 2916 
Q 2900 3119 2900 3481 
Q 2900 3844 2670 4047 
Q 2441 4250 2034 4250 
Q 1625 4250 1398 4047 
Q 1172 3844 1172 3481 
z
" transform="scale(0.015625)"/>
       </defs>
       <use xlink:href="#DejaVuSans-2212"/>
       <use xlink:href="#DejaVuSans-38" x="83.789062"/>
       <use xlink:href="#DejaVuSans-30" x="147.412109"/>
       <use xlink:href="#DejaVuSans-30" x="211.035156"/>
       <use xlink:href="#DejaVuSans-30" x="274.658203"/>
       <use xlink:href="#DejaVuSans-30" x="338.28125"/>
      </g>
     </g>
    </g>
    <g id="xtick_6">
     <g id="line2d_6">
      <g>
       <use xlink:href="#m629750091d" x="290.184585" y="303.64" style="stroke: #000000; stroke-width: 0.8"/>
      </g>
     </g>
     <g id="text_6">
      <!-- −60000 -->
      <g transform="translate(270.088491 318.238437) scale(0.1 -0.1)">
       <use xlink:href="#DejaVuSans-2212"/>
       <use xlink:href="#DejaVuSans-36" x="83.789062"/>
       <use xlink:href="#DejaVuSans-30" x="147.412109"/>
       <use xlink:href="#DejaVuSans-30" x="211.035156"/>
       <use xlink:href="#DejaVuSans-30" x="274.658203"/>
       <use xlink:href="#DejaVuSans-30" x="338.28125"/>
      </g>
     </g>
    </g>
    <g id="xtick_7">
     <g id="line2d_7">
      <g>
       <use xlink:href="#m629750091d" x="335.846132" y="303.64" style="stroke: #000000; stroke-width: 0.8"/>
      </g>
     </g>
     <g id="text_7">
      <!-- −40000 -->
      <g transform="translate(315.750038 318.238437) scale(0.1 -0.1)">
       <use xlink:href="#DejaVuSans-2212"/>
       <use xlink:href="#DejaVuSans-34" x="83.789062"/>
       <use xlink:href="#DejaVuSans-30" x="147.412109"/>
       <use xlink:href="#DejaVuSans-30" x="211.035156"/>
       <use xlink:href="#DejaVuSans-30" x="274.658203"/>
       <use xlink:href="#DejaVuSans-30" x="338.28125"/>
      </g>
     </g>
    </g>
    <g id="xtick_8">
     <g id="line2d_8">
      <g>
       <use xlink:href="#m629750091d" x="381.507679" y="303.64" style="stroke: #000000; stroke-width: 0.8"/>
      </g>
     </g>
     <g id="text_8">
      <!-- −20000 -->
      <g transform="translate(361.411586 318.238437) scale(0.1 -0.1)">
       <use xlink:href="#DejaVuSans-2212"/>
       <use xlink:href="#DejaVuSans-32" x="83.789062"/>
       <use xlink:href="#DejaVuSans-30" x="147.412109"/>
       <use xlink:href="#DejaVuSans-30" x="211.035156"/>
       <use xlink:href="#DejaVuSans-30" x="274.658203"/>
       <use xlink:href="#DejaVuSans-30" x="338.28125"/>
      </g>
     </g>
    </g>
    <g id="xtick_9">
     <g id="line2d_9">
      <g>
       <use xlink:href="#m629750091d" x="427.169226" y="303.64" style="stroke: #000000; stroke-width: 0.8"/>
      </g>
     </g>
     <g id="text_9">
      <!-- 0 -->
      <g transform="translate(423.987976 318.238437) scale(0.1 -0.1)">
       <use xlink:href="#DejaVuSans-30"/>
      </g>
     </g>
    </g>
    <g id="text_10">
     <!-- Difference in global warming (kg CO2 eq) per year of use -->
     <g transform="translate(110.486406 331.916562) scale(0.1 -0.1)">
      <defs>
       <path id="DejaVuSans-44" d="M 1259 4147 
L 1259 519 
L 2022 519 
Q 2988 519 3436 956 
Q 3884 1394 3884 2338 
Q 3884 3275 3436 3711 
Q 2988 4147 2022 4147 
L 1259 4147 
z
M 628 4666 
L 1925 4666 
Q 3281 4666 3915 4102 
Q 4550 3538 4550 2338 
Q 4550 1131 3912 565 
Q 3275 0 1925 0 
L 628 0 
L 628 4666 
z
" transform="scale(0.015625)"/>
       <path id="DejaVuSans-69" d="M 603 3500 
L 1178 3500 
L 1178 0 
L 603 0 
L 603 3500 
z
M 603 4863 
L 1178 4863 
L 1178 4134 
L 603 4134 
L 603 4863 
z
" transform="scale(0.015625)"/>
       <path id="DejaVuSans-66" d="M 2375 4863 
L 2375 4384 
L 1825 4384 
Q 1516 4384 1395 4259 
Q 1275 4134 1275 3809 
L 1275 3500 
L 2222 3500 
L 2222 3053 
L 1275 3053 
L 1275 0 
L 697 0 
L 697 3053 
L 147 3053 
L 147 3500 
L 697 3500 
L 697 3744 
Q 697 4328 969 4595 
Q 1241 4863 1831 4863 
L 2375 4863 
z
" transform="scale(0.015625)"/>
       <path id="DejaVuSans-65" d="M 3597 1894 
L 3597 1613 
L 953 1613 
Q 991 1019 1311 708 
Q 1631 397 2203 397 
Q 2534 397 2845 478 
Q 3156 559 3463 722 
L 3463 178 
Q 3153 47 2828 -22 
Q 2503 -91 2169 -91 
Q 1331 -91 842 396 
Q 353 884 353 1716 
Q 353 2575 817 3079 
Q 1281 3584 2069 3584 
Q 2775 3584 3186 3129 
Q 3597 2675 3597 1894 
z
M 3022 2063 
Q 3016 2534 2758 2815 
Q 2500 3097 2075 3097 
Q 1594 3097 1305 2825 
Q 1016 2553 972 2059 
L 3022 2063 
z
" transform="scale(0.015625)"/>
       <path id="DejaVuSans-72" d="M 2631 2963 
Q 2534 3019 2420 3045 
Q 2306 3072 2169 3072 
Q 1681 3072 1420 2755 
Q 1159 2438 1159 1844 
L 1159 0 
L 581 0 
L 581 3500 
L 1159 3500 
L 1159 2956 
Q 1341 3275 1631 3429 
Q 1922 3584 2338 3584 
Q 2397 3584 2469 3576 
Q 2541 3569 2628 3553 
L 2631 2963 
z
" transform="scale(0.015625)"/>
       <path id="DejaVuSans-6e" d="M 3513 2113 
L 3513 0 
L 2938 0 
L 2938 2094 
Q 2938 2591 2744 2837 
Q 2550 3084 2163 3084 
Q 1697 3084 1428 2787 
Q 1159 2491 1159 1978 
L 1159 0 
L 581 0 
L 581 3500 
L 1159 3500 
L 1159 2956 
Q 1366 3272 1645 3428 
Q 1925 3584 2291 3584 
Q 2894 3584 3203 3211 
Q 3513 2838 3513 2113 
z
" transform="scale(0.015625)"/>
       <path id="DejaVuSans-63" d="M 3122 3366 
L 3122 2828 
Q 2878 2963 2633 3030 
Q 2388 3097 2138 3097 
Q 1578 3097 1268 2742 
Q 959 2388 959 1747 
Q 959 1106 1268 751 
Q 1578 397 2138 397 
Q 2388 397 2633 464 
Q 2878 531 3122 666 
L 3122 134 
Q 2881 22 2623 -34 
Q 2366 -91 2075 -91 
Q 1284 -91 818 406 
Q 353 903 353 1747 
Q 353 2603 823 3093 
Q 1294 3584 2113 3584 
Q 2378 3584 2631 3529 
Q 2884 3475 3122 3366 
z
" transform="scale(0.015625)"/>
       <path id="DejaVuSans-20" transform="scale(0.015625)"/>
       <path id="DejaVuSans-67" d="M 2906 1791 
Q 2906 2416 2648 2759 
Q 2391 3103 1925 3103 
Q 1463 3103 1205 2759 
Q 947 2416 947 1791 
Q 947 1169 1205 825 
Q 1463 481 1925 481 
Q 2391 481 2648 825 
Q 2906 1169 2906 1791 
z
M 3481 434 
Q 3481 -459 3084 -895 
Q 2688 -1331 1869 -1331 
Q 1566 -1331 1297 -1286 
Q 1028 -1241 775 -1147 
L 775 -588 
Q 1028 -725 1275 -790 
Q 1522 -856 1778 -856 
Q 2344 -856 2625 -561 
Q 2906 -266 2906 331 
L 2906 616 
Q 2728 306 2450 153 
Q 2172 0 1784 0 
Q 1141 0 747 490 
Q 353 981 353 1791 
Q 353 2603 747 3093 
Q 1141 3584 1784 3584 
Q 2172 3584 2450 3431 
Q 2728 3278 2906 2969 
L 2906 3500 
L 3481 3500 
L 3481 434 
z
" transform="scale(0.015625)"/>
       <path id="DejaVuSans-6c" d="M 603 4863 
L 1178 4863 
L 1178 0 
L 603 0 
L 603 4863 
z
" transform="scale(0.015625)"/>
       <path id="DejaVuSans-6f" d="M 1959 3097 
Q 1497 3097 1228 2736 
Q 959 2375 959 1747 
Q 959 1119 1226 758 
Q 1494 397 1959 397 
Q 2419 397 2687 759 
Q 2956 1122 2956 1747 
Q 2956 2369 2687 2733 
Q 2419 3097 1959 3097 
z
M 1959 3584 
Q 2709 3584 3137 3096 
Q 3566 2609 3566 1747 
Q 3566 888 3137 398 
Q 2709 -91 1959 -91 
Q 1206 -91 779 398 
Q 353 888 353 1747 
Q 353 2609 779 3096 
Q 1206 3584 1959 3584 
z
" transform="scale(0.015625)"/>
       <path id="DejaVuSans-62" d="M 3116 1747 
Q 3116 2381 2855 2742 
Q 2594 3103 2138 3103 
Q 1681 3103 1420 2742 
Q 1159 2381 1159 1747 
Q 1159 1113 1420 752 
Q 1681 391 2138 391 
Q 2594 391 2855 752 
Q 3116 1113 3116 1747 
z
M 1159 2969 
Q 1341 3281 1617 3432 
Q 1894 3584 2278 3584 
Q 2916 3584 3314 3078 
Q 3713 2572 3713 1747 
Q 3713 922 3314 415 
Q 2916 -91 2278 -91 
Q 1894 -91 1617 61 
Q 1341 213 1159 525 
L 1159 0 
L 581 0 
L 581 4863 
L 1159 4863 
L 1159 2969 
z
" transform="scale(0.015625)"/>
       <path id="DejaVuSans-61" d="M 2194 1759 
Q 1497 1759 1228 1600 
Q 959 1441 959 1056 
Q 959 750 1161 570 
Q 1363 391 1709 391 
Q 2188 391 2477 730 
Q 2766 1069 2766 1631 
L 2766 1759 
L 2194 1759 
z
M 3341 1997 
L 3341 0 
L 2766 0 
L 2766 531 
Q 2569 213 2275 61 
Q 1981 -91 1556 -91 
Q 1019 -91 701 211 
Q 384 513 384 1019 
Q 384 1609 779 1909 
Q 1175 2209 1959 2209 
L 2766 2209 
L 2766 2266 
Q 2766 2663 2505 2880 
Q 2244 3097 1772 3097 
Q 1472 3097 1187 3025 
Q 903 2953 641 2809 
L 641 3341 
Q 956 3463 1253 3523 
Q 1550 3584 1831 3584 
Q 2591 3584 2966 3190 
Q 3341 2797 3341 1997 
z
" transform="scale(0.015625)"/>
       <path id="DejaVuSans-77" d="M 269 3500 
L 844 3500 
L 1563 769 
L 2278 3500 
L 2956 3500 
L 3675 769 
L 4391 3500 
L 4966 3500 
L 4050 0 
L 3372 0 
L 2619 2869 
L 1863 0 
L 1184 0 
L 269 3500 
z
" transform="scale(0.015625)"/>
       <path id="DejaVuSans-6d" d="M 3328 2828 
Q 3544 3216 3844 3400 
Q 4144 3584 4550 3584 
Q 5097 3584 5394 3201 
Q 5691 2819 5691 2113 
L 5691 0 
L 5113 0 
L 5113 2094 
Q 5113 2597 4934 2840 
Q 4756 3084 4391 3084 
Q 3944 3084 3684 2787 
Q 3425 2491 3425 1978 
L 3425 0 
L 2847 0 
L 2847 2094 
Q 2847 2600 2669 2842 
Q 2491 3084 2119 3084 
Q 1678 3084 1418 2786 
Q 1159 2488 1159 1978 
L 1159 0 
L 581 0 
L 581 3500 
L 1159 3500 
L 1159 2956 
Q 1356 3278 1631 3431 
Q 1906 3584 2284 3584 
Q 2666 3584 2933 3390 
Q 3200 3197 3328 2828 
z
" transform="scale(0.015625)"/>
       <path id="DejaVuSans-28" d="M 1984 4856 
Q 1566 4138 1362 3434 
Q 1159 2731 1159 2009 
Q 1159 1288 1364 580 
Q 1569 -128 1984 -844 
L 1484 -844 
Q 1016 -109 783 600 
Q 550 1309 550 2009 
Q 550 2706 781 3412 
Q 1013 4119 1484 4856 
L 1984 4856 
z
" transform="scale(0.015625)"/>
       <path id="DejaVuSans-6b" d="M 581 4863 
L 1159 4863 
L 1159 1991 
L 2875 3500 
L 3609 3500 
L 1753 1863 
L 3688 0 
L 2938 0 
L 1159 1709 
L 1159 0 
L 581 0 
L 581 4863 
z
" transform="scale(0.015625)"/>
       <path id="DejaVuSans-43" d="M 4122 4306 
L 4122 3641 
Q 3803 3938 3442 4084 
Q 3081 4231 2675 4231 
Q 1875 4231 1450 3742 
Q 1025 3253 1025 2328 
Q 1025 1406 1450 917 
Q 1875 428 2675 428 
Q 3081 428 3442 575 
Q 3803 722 4122 1019 
L 4122 359 
Q 3791 134 3420 21 
Q 3050 -91 2638 -91 
Q 1578 -91 968 557 
Q 359 1206 359 2328 
Q 359 3453 968 4101 
Q 1578 4750 2638 4750 
Q 3056 4750 3426 4639 
Q 3797 4528 4122 4306 
z
" transform="scale(0.015625)"/>
       <path id="DejaVuSans-4f" d="M 2522 4238 
Q 1834 4238 1429 3725 
Q 1025 3213 1025 2328 
Q 1025 1447 1429 934 
Q 1834 422 2522 422 
Q 3209 422 3611 934 
Q 4013 1447 4013 2328 
Q 4013 3213 3611 3725 
Q 3209 4238 2522 4238 
z
M 2522 4750 
Q 3503 4750 4090 4092 
Q 4678 3434 4678 2328 
Q 4678 1225 4090 567 
Q 3503 -91 2522 -91 
Q 1538 -91 948 565 
Q 359 1222 359 2328 
Q 359 3434 948 4092 
Q 1538 4750 2522 4750 
z
" transform="scale(0.015625)"/>
       <path id="DejaVuSans-71" d="M 947 1747 
Q 947 1113 1208 752 
Q 1469 391 1925 391 
Q 2381 391 2643 752 
Q 2906 1113 2906 1747 
Q 2906 2381 2643 2742 
Q 2381 3103 1925 3103 
Q 1469 3103 1208 2742 
Q 947 2381 947 1747 
z
M 2906 525 
Q 2725 213 2448 61 
Q 2172 -91 1784 -91 
Q 1150 -91 751 415 
Q 353 922 353 1747 
Q 353 2572 751 3078 
Q 1150 3584 1784 3584 
Q 2172 3584 2448 3432 
Q 2725 3281 2906 2969 
L 2906 3500 
L 3481 3500 
L 3481 -1331 
L 2906 -1331 
L 2906 525 
z
" transform="scale(0.015625)"/>
       <path id="DejaVuSans-29" d="M 513 4856 
L 1013 4856 
Q 1481 4119 1714 3412 
Q 1947 2706 1947 2009 
Q 1947 1309 1714 600 
Q 1481 -109 1013 -844 
L 513 -844 
Q 928 -128 1133 580 
Q 1338 1288 1338 2009 
Q 1338 2731 1133 3434 
Q 928 4138 513 4856 
z
" transform="scale(0.015625)"/>
       <path id="DejaVuSans-70" d="M 1159 525 
L 1159 -1331 
L 581 -1331 
L 581 3500 
L 1159 3500 
L 1159 2969 
Q 1341 3281 1617 3432 
Q 1894 3584 2278 3584 
Q 2916 3584 3314 3078 
Q 3713 2572 3713 1747 
Q 3713 922 3314 415 
Q 2916 -91 2278 -91 
Q 1894 -91 1617 61 
Q 1341 213 1159 525 
z
M 3116 1747 
Q 3116 2381 2855 2742 
Q 2594 3103 2138 3103 
Q 1681 3103 1420 2742 
Q 1159 2381 1159 1747 
Q 1159 1113 1420 752 
Q 1681 391 2138 391 
Q 2594 391 2855 752 
Q 3116 1113 3116 1747 
z
" transform="scale(0.015625)"/>
       <path id="DejaVuSans-79" d="M 2059 -325 
Q 1816 -950 1584 -1140 
Q 1353 -1331 966 -1331 
L 506 -1331 
L 506 -850 
L 844 -850 
Q 1081 -850 1212 -737 
Q 1344 -625 1503 -206 
L 1606 56 
L 191 3500 
L 800 3500 
L 1894 763 
L 2988 3500 
L 3597 3500 
L 2059 -325 
z
" transform="scale(0.015625)"/>
       <path id="DejaVuSans-75" d="M 544 1381 
L 544 3500 
L 1119 3500 
L 1119 1403 
Q 1119 906 1312 657 
Q 1506 409 1894 409 
Q 2359 409 2629 706 
Q 2900 1003 2900 1516 
L 2900 3500 
L 3475 3500 
L 3475 0 
L 2900 0 
L 2900 538 
Q 2691 219 2414 64 
Q 2138 -91 1772 -91 
Q 1169 -91 856 284 
Q 544 659 544 1381 
z
M 1991 3584 
L 1991 3584 
z
" transform="scale(0.015625)"/>
       <path id="DejaVuSans-73" d="M 2834 3397 
L 2834 2853 
Q 2591 2978 2328 3040 
Q 2066 3103 1784 3103 
Q 1356 3103 1142 2972 
Q 928 2841 928 2578 
Q 928 2378 1081 2264 
Q 1234 2150 1697 2047 
L 1894 2003 
Q 2506 1872 2764 1633 
Q 3022 1394 3022 966 
Q 3022 478 2636 193 
Q 2250 -91 1575 -91 
Q 1294 -91 989 -36 
Q 684 19 347 128 
L 347 722 
Q 666 556 975 473 
Q 1284 391 1588 391 
Q 1994 391 2212 530 
Q 2431 669 2431 922 
Q 2431 1156 2273 1281 
Q 2116 1406 1581 1522 
L 1381 1569 
Q 847 1681 609 1914 
Q 372 2147 372 2553 
Q 372 3047 722 3315 
Q 1072 3584 1716 3584 
Q 2034 3584 2315 3537 
Q 2597 3491 2834 3397 
z
" transform="scale(0.015625)"/>
      </defs>
      <use xlink:href="#DejaVuSans-44"/>
      <use xlink:href="#DejaVuSans-69" x="77.001953"/>
      <use xlink:href="#DejaVuSans-66" x="104.785156"/>
      <use xlink:href="#DejaVuSans-66" x="139.990234"/>
      <use xlink:href="#DejaVuSans-65" x="175.195312"/>
      <use xlink:href="#DejaVuSans-72" x="236.71875"/>
      <use xlink:href="#DejaVuSans-65" x="275.582031"/>
      <use xlink:href="#DejaVuSans-6e" x="337.105469"/>
      <use xlink:href="#DejaVuSans-63" x="400.484375"/>
      <use xlink:href="#DejaVuSans-65" x="455.464844"/>
      <use xlink:href="#DejaVuSans-20" x="516.988281"/>
      <use xlink:href="#DejaVuSans-69" x="548.775391"/>
      <use xlink:href="#DejaVuSans-6e" x="576.558594"/>
      <use xlink:href="#DejaVuSans-20" x="639.9375"/>
      <use xlink:href="#DejaVuSans-67" x="671.724609"/>
      <use xlink:href="#DejaVuSans-6c" x="735.201172"/>
      <use xlink:href="#DejaVuSans-6f" x="762.984375"/>
      <use xlink:href="#DejaVuSans-62" x="824.166016"/>
      <use xlink:href="#DejaVuSans-61" x="887.642578"/>
      <use xlink:href="#DejaVuSans-6c" x="948.921875"/>
      <use xlink:href="#DejaVuSans-20" x="976.705078"/>
      <use xlink:href="#DejaVuSans-77" x="1008.492188"/>
      <use xlink:href="#DejaVuSans-61" x="1090.279297"/>
      <use xlink:href="#DejaVuSans-72" x="1151.558594"/>
      <use xlink:href="#DejaVuSans-6d" x="1190.921875"/>
      <use xlink:href="#DejaVuSans-69" x="1288.333984"/>
      <use xlink:href="#DejaVuSans-6e" x="1316.117188"/>
      <use xlink:href="#DejaVuSans-67" x="1379.496094"/>
      <use xlink:href="#DejaVuSans-20" x="1442.972656"/>
      <use xlink:href="#DejaVuSans-28" x="1474.759766"/>
      <use xlink:href="#DejaVuSans-6b" x="1513.773438"/>
      <use xlink:href="#DejaVuSans-67" x="1571.683594"/>
      <use xlink:href="#DejaVuSans-20" x="1635.160156"/>
      <use xlink:href="#DejaVuSans-43" x="1666.947266"/>
      <use xlink:href="#DejaVuSans-4f" x="1736.771484"/>
      <use xlink:href="#DejaVuSans-32" x="1815.482422"/>
      <use xlink:href="#DejaVuSans-20" x="1879.105469"/>
      <use xlink:href="#DejaVuSans-65" x="1910.892578"/>
      <use xlink:href="#DejaVuSans-71" x="1972.416016"/>
      <use xlink:href="#DejaVuSans-29" x="2035.892578"/>
      <use xlink:href="#DejaVuSans-20" x="2074.90625"/>
      <use xlink:href="#DejaVuSans-70" x="2106.693359"/>
      <use xlink:href="#DejaVuSans-65" x="2170.169922"/>
      <use xlink:href="#DejaVuSans-72" x="2231.693359"/>
      <use xlink:href="#DejaVuSans-20" x="2272.806641"/>
      <use xlink:href="#DejaVuSans-79" x="2304.59375"/>
      <use xlink:href="#DejaVuSans-65" x="2363.773438"/>
      <use xlink:href="#DejaVuSans-61" x="2425.296875"/>
      <use xlink:href="#DejaVuSans-72" x="2486.576172"/>
      <use xlink:href="#DejaVuSans-20" x="2527.689453"/>
      <use xlink:href="#DejaVuSans-6f" x="2559.476562"/>
      <use xlink:href="#DejaVuSans-66" x="2620.658203"/>
      <use xlink:href="#DejaVuSans-20" x="2655.863281"/>
      <use xlink:href="#DejaVuSans-75" x="2687.650391"/>
      <use xlink:href="#DejaVuSans-73" x="2751.029297"/>
      <use xlink:href="#DejaVuSans-65" x="2803.128906"/>
     </g>
    </g>
   </g>
   <g id="matplotlib.axis_2">
    <g id="ytick_1">
     <g id="line2d_10">
      <path d="M 57.44 303.64 
L 450 303.64 
" clip-path="url(#p5c3c4c195f)" style="fill: none; stroke: #b0b0b0; stroke-width: 0.8; stroke-linecap: square"/>
     </g>
     <g id="line2d_11">
      <defs>
       <path id="m769f4a4d2b" d="M 0 0 
L -3.5 0 
" style="stroke: #000000; stroke-width: 0.8"/>
      </defs>
      <g>
       <use xlink:href="#m769f4a4d2b" x="57.44" y="303.64" style="stroke: #000000; stroke-width: 0.8"/>
      </g>
     </g>
     <g id="text_11">
      <!-- 0 -->
      <g transform="translate(44.0775 307.439219) scale(0.1 -0.1)">
       <use xlink:href="#DejaVuSans-30"/>
      </g>
     </g>
    </g>
    <g id="ytick_2">
     <g id="line2d_12">
      <path d="M 57.44 253.748186 
L 450 253.748186 
" clip-path="url(#p5c3c4c195f)" style="fill: none; stroke: #b0b0b0; stroke-width: 0.8; stroke-linecap: square"/>
     </g>
     <g id="line2d_13">
      <g>
       <use xlink:href="#m769f4a4d2b" x="57.44" y="253.748186" style="stroke: #000000; stroke-width: 0.8"/>
      </g>
     </g>
     <g id="text_12">
      <!-- 1000 -->
      <g transform="translate(24.99 257.547405) scale(0.1 -0.1)">
       <use xlink:href="#DejaVuSans-31"/>
       <use xlink:href="#DejaVuSans-30" x="63.623047"/>
       <use xlink:href="#DejaVuSans-30" x="127.246094"/>
       <use xlink:href="#DejaVuSans-30" x="190.869141"/>
      </g>
     </g>
    </g>
    <g id="ytick_3">
     <g id="line2d_14">
      <path d="M 57.44 203.856373 
L 450 203.856373 
" clip-path="url(#p5c3c4c195f)" style="fill: none; stroke: #b0b0b0; stroke-width: 0.8; stroke-linecap: square"/>
     </g>
     <g id="line2d_15">
      <g>
       <use xlink:href="#m769f4a4d2b" x="57.44" y="203.856373" style="stroke: #000000; stroke-width: 0.8"/>
      </g>
     </g>
     <g id="text_13">
      <!-- 2000 -->
      <g transform="translate(24.99 207.655592) scale(0.1 -0.1)">
       <use xlink:href="#DejaVuSans-32"/>
       <use xlink:href="#DejaVuSans-30" x="63.623047"/>
       <use xlink:href="#DejaVuSans-30" x="127.246094"/>
       <use xlink:href="#DejaVuSans-30" x="190.869141"/>
      </g>
     </g>
    </g>
    <g id="ytick_4">
     <g id="line2d_16">
      <path d="M 57.44 153.964559 
L 450 153.964559 
" clip-path="url(#p5c3c4c195f)" style="fill: none; stroke: #b0b0b0; stroke-width: 0.8; stroke-linecap: square"/>
     </g>
     <g id="line2d_17">
      <g>
       <use xlink:href="#m769f4a4d2b" x="57.44" y="153.964559" style="stroke: #000000; stroke-width: 0.8"/>
      </g>
     </g>
     <g id="text_14">
      <!-- 3000 -->
      <g transform="translate(24.99 157.763778) scale(0.1 -0.1)">
       <defs>
        <path id="DejaVuSans-33" d="M 2597 2516 
Q 3050 2419 3304 2112 
Q 3559 1806 3559 1356 
Q 3559 666 3084 287 
Q 2609 -91 1734 -91 
Q 1441 -91 1130 -33 
Q 819 25 488 141 
L 488 750 
Q 750 597 1062 519 
Q 1375 441 1716 441 
Q 2309 441 2620 675 
Q 2931 909 2931 1356 
Q 2931 1769 2642 2001 
Q 2353 2234 1838 2234 
L 1294 2234 
L 1294 2753 
L 1863 2753 
Q 2328 2753 2575 2939 
Q 2822 3125 2822 3475 
Q 2822 3834 2567 4026 
Q 2313 4219 1838 4219 
Q 1578 4219 1281 4162 
Q 984 4106 628 3988 
L 628 4550 
Q 988 4650 1302 4700 
Q 1616 4750 1894 4750 
Q 2613 4750 3031 4423 
Q 3450 4097 3450 3541 
Q 3450 3153 3228 2886 
Q 3006 2619 2597 2516 
z
" transform="scale(0.015625)"/>
       </defs>
       <use xlink:href="#DejaVuSans-33"/>
       <use xlink:href="#DejaVuSans-30" x="63.623047"/>
       <use xlink:href="#DejaVuSans-30" x="127.246094"/>
       <use xlink:href="#DejaVuSans-30" x="190.869141"/>
      </g>
     </g>
    </g>
    <g id="ytick_5">
     <g id="line2d_18">
      <path d="M 57.44 104.072746 
L 450 104.072746 
" clip-path="url(#p5c3c4c195f)" style="fill: none; stroke: #b0b0b0; stroke-width: 0.8; stroke-linecap: square"/>
     </g>
     <g id="line2d_19">
      <g>
       <use xlink:href="#m769f4a4d2b" x="57.44" y="104.072746" style="stroke: #000000; stroke-width: 0.8"/>
      </g>
     </g>
     <g id="text_15">
      <!-- 4000 -->
      <g transform="translate(24.99 107.871964) scale(0.1 -0.1)">
       <use xlink:href="#DejaVuSans-34"/>
       <use xlink:href="#DejaVuSans-30" x="63.623047"/>
       <use xlink:href="#DejaVuSans-30" x="127.246094"/>
       <use xlink:href="#DejaVuSans-30" x="190.869141"/>
      </g>
     </g>
    </g>
    <g id="ytick_6">
     <g id="line2d_20">
      <path d="M 57.44 54.180932 
L 450 54.180932 
" clip-path="url(#p5c3c4c195f)" style="fill: none; stroke: #b0b0b0; stroke-width: 0.8; stroke-linecap: square"/>
     </g>
     <g id="line2d_21">
      <g>
       <use xlink:href="#m769f4a4d2b" x="57.44" y="54.180932" style="stroke: #000000; stroke-width: 0.8"/>
      </g>
     </g>
     <g id="text_16">
      <!-- 5000 -->
      <g transform="translate(24.99 57.980151) scale(0.1 -0.1)">
       <defs>
        <path id="DejaVuSans-35" d="M 691 4666 
L 3169 4666 
L 3169 4134 
L 1269 4134 
L 1269 2991 
Q 1406 3038 1543 3061 
Q 1681 3084 1819 3084 
Q 2600 3084 3056 2656 
Q 3513 2228 3513 1497 
Q 3513 744 3044 326 
Q 2575 -91 1722 -91 
Q 1428 -91 1123 -41 
Q 819 9 494 109 
L 494 744 
Q 775 591 1075 516 
Q 1375 441 1709 441 
Q 2250 441 2565 725 
Q 2881 1009 2881 1497 
Q 2881 1984 2565 2268 
Q 2250 2553 1709 2553 
Q 1456 2553 1204 2497 
Q 953 2441 691 2322 
L 691 4666 
z
" transform="scale(0.015625)"/>
       </defs>
       <use xlink:href="#DejaVuSans-35"/>
       <use xlink:href="#DejaVuSans-30" x="63.623047"/>
       <use xlink:href="#DejaVuSans-30" x="127.246094"/>
       <use xlink:href="#DejaVuSans-30" x="190.869141"/>
      </g>
     </g>
    </g>
    <g id="text_17">
     <!-- Number of motors (out of 50000) -->
     <g transform="translate(18.910313 240.495781) rotate(-90) scale(0.1 -0.1)">
      <defs>
       <path id="DejaVuSans-4e" d="M 628 4666 
L 1478 4666 
L 3547 763 
L 3547 4666 
L 4159 4666 
L 4159 0 
L 3309 0 
L 1241 3903 
L 1241 0 
L 628 0 
L 628 4666 
z
" transform="scale(0.015625)"/>
       <path id="DejaVuSans-74" d="M 1172 4494 
L 1172 3500 
L 2356 3500 
L 2356 3053 
L 1172 3053 
L 1172 1153 
Q 1172 725 1289 603 
Q 1406 481 1766 481 
L 2356 481 
L 2356 0 
L 1766 0 
Q 1100 0 847 248 
Q 594 497 594 1153 
L 594 3053 
L 172 3053 
L 172 3500 
L 594 3500 
L 594 4494 
L 1172 4494 
z
" transform="scale(0.015625)"/>
      </defs>
      <use xlink:href="#DejaVuSans-4e"/>
      <use xlink:href="#DejaVuSans-75" x="74.804688"/>
      <use xlink:href="#DejaVuSans-6d" x="138.183594"/>
      <use xlink:href="#DejaVuSans-62" x="235.595703"/>
      <use xlink:href="#DejaVuSans-65" x="299.072266"/>
      <use xlink:href="#DejaVuSans-72" x="360.595703"/>
      <use xlink:href="#DejaVuSans-20" x="401.708984"/>
      <use xlink:href="#DejaVuSans-6f" x="433.496094"/>
      <use xlink:href="#DejaVuSans-66" x="494.677734"/>
      <use xlink:href="#DejaVuSans-20" x="529.882812"/>
      <use xlink:href="#DejaVuSans-6d" x="561.669922"/>
      <use xlink:href="#DejaVuSans-6f" x="659.082031"/>
      <use xlink:href="#DejaVuSans-74" x="720.263672"/>
      <use xlink:href="#DejaVuSans-6f" x="759.472656"/>
      <use xlink:href="#DejaVuSans-72" x="820.654297"/>
      <use xlink:href="#DejaVuSans-73" x="861.767578"/>
      <use xlink:href="#DejaVuSans-20" x="913.867188"/>
      <use xlink:href="#DejaVuSans-28" x="945.654297"/>
      <use xlink:href="#DejaVuSans-6f" x="984.667969"/>
      <use xlink:href="#DejaVuSans-75" x="1045.849609"/>
      <use xlink:href="#DejaVuSans-74" x="1109.228516"/>
      <use xlink:href="#DejaVuSans-20" x="1148.4375"/>
      <use xlink:href="#DejaVuSans-6f" x="1180.224609"/>
      <use xlink:href="#DejaVuSans-66" x="1241.40625"/>
      <use xlink:href="#DejaVuSans-20" x="1276.611328"/>
      <use xlink:href="#DejaVuSans-35" x="1308.398438"/>
      <use xlink:href="#DejaVuSans-30" x="1372.021484"/>
      <use xlink:href="#DejaVuSans-30" x="1435.644531"/>
      <use xlink:href="#DejaVuSans-30" x="1499.267578"/>
      <use xlink:href="#DejaVuSans-30" x="1562.890625"/>
      <use xlink:href="#DejaVuSans-29" x="1626.513672"/>
     </g>
    </g>
   </g>
   <g id="patch_3">
    <path d="M 57.44 303.64 
L 57.44 10.8 
" style="fill: none; stroke: #000000; stroke-width: 0.8; stroke-linejoin: miter; stroke-linecap: square"/>
   </g>
   <g id="patch_4">
    <path d="M 450 303.64 
L 450 10.8 
" style="fill: none; stroke: #000000; stroke-width: 0.8; stroke-linejoin: miter; stroke-linecap: square"/>
   </g>
   <g id="patch_5">
    <path d="M 57.44 303.64 
L 450 303.64 
" style="fill: none; stroke: #000000; stroke-width: 0.8; stroke-linejoin: miter; stroke-linecap: square"/>
   </g>
   <g id="patch_6">
    <path d="M 57.44 10.8 
L 450 10.8 
" style="fill: none; stroke: #000000; stroke-width: 0.8; stroke-linejoin: miter; stroke-linecap: square"/>
   </g>
   <g id="text_18">
    <!-- Repair not beneficial -->
    <g style="fill: #0071bb" transform="translate(443.627066 180.990153) rotate(-90) scale(0.1 -0.1)">
     <defs>
      <path id="DejaVuSans-52" d="M 2841 2188 
Q 3044 2119 3236 1894 
Q 3428 1669 3622 1275 
L 4263 0 
L 3584 0 
L 2988 1197 
Q 2756 1666 2539 1819 
Q 2322 1972 1947 1972 
L 1259 1972 
L 1259 0 
L 628 0 
L 628 4666 
L 2053 4666 
Q 2853 4666 3247 4331 
Q 3641 3997 3641 3322 
Q 3641 2881 3436 2590 
Q 3231 2300 2841 2188 
z
M 1259 4147 
L 1259 2491 
L 2053 2491 
Q 2509 2491 2742 2702 
Q 2975 2913 2975 3322 
Q 2975 3731 2742 3939 
Q 2509 4147 2053 4147 
L 1259 4147 
z
" transform="scale(0.015625)"/>
     </defs>
     <use xlink:href="#DejaVuSans-52"/>
     <use xlink:href="#DejaVuSans-65" x="64.982422"/>
     <use xlink:href="#DejaVuSans-70" x="126.505859"/>
     <use xlink:href="#DejaVuSans-61" x="189.982422"/>
     <use xlink:href="#DejaVuSans-69" x="251.261719"/>
     <use xlink:href="#DejaVuSans-72" x="279.044922"/>
     <use xlink:href="#DejaVuSans-20" x="320.158203"/>
     <use xlink:href="#DejaVuSans-6e" x="351.945312"/>
     <use xlink:href="#DejaVuSans-6f" x="415.324219"/>
     <use xlink:href="#DejaVuSans-74" x="476.505859"/>
     <use xlink:href="#DejaVuSans-20" x="515.714844"/>
     <use xlink:href="#DejaVuSans-62" x="547.501953"/>
     <use xlink:href="#DejaVuSans-65" x="610.978516"/>
     <use xlink:href="#DejaVuSans-6e" x="672.501953"/>
     <use xlink:href="#DejaVuSans-65" x="735.880859"/>
     <use xlink:href="#DejaVuSans-66" x="797.404297"/>
     <use xlink:href="#DejaVuSans-69" x="832.609375"/>
     <use xlink:href="#DejaVuSans-63" x="860.392578"/>
     <use xlink:href="#DejaVuSans-69" x="915.373047"/>
     <use xlink:href="#DejaVuSans-61" x="943.15625"/>
     <use xlink:href="#DejaVuSans-6c" x="1004.435547"/>
    </g>
   </g>
   <g id="patch_7">
    <path d="M 427.169226 303.64 
L 427.169226 10.8 
L 450 10.8 
L 450 303.64 
z
" clip-path="url(#p5c3c4c195f)" style="fill: #0071bb; opacity: 0.3"/>
   </g>
   <g id="legend_1">
    <g id="patch_8">
     <path d="M 64.44 48.15625 
L 296.74625 48.15625 
Q 298.74625 48.15625 298.74625 46.15625 
L 298.74625 17.8 
Q 298.74625 15.8 296.74625 15.8 
L 64.44 15.8 
Q 62.44 15.8 62.44 17.8 
L 62.44 46.15625 
Q 62.44 48.15625 64.44 48.15625 
z
" style="fill: #ffffff; opacity: 0.8; stroke: #cccccc; stroke-linejoin: miter"/>
    </g>
    <g id="patch_9">
     <path d="M 66.44 27.398438 
L 86.44 27.398438 
L 86.44 20.398438 
L 66.44 20.398438 
z
" style="fill: #a7b6c1; stroke: #36434c; stroke-linejoin: miter"/>
    </g>
    <g id="text_19">
     <!-- Impact difference: with repair - baseline -->
     <g transform="translate(94.44 27.398438) scale(0.1 -0.1)">
      <defs>
       <path id="DejaVuSans-49" d="M 628 4666 
L 1259 4666 
L 1259 0 
L 628 0 
L 628 4666 
z
" transform="scale(0.015625)"/>
       <path id="DejaVuSans-64" d="M 2906 2969 
L 2906 4863 
L 3481 4863 
L 3481 0 
L 2906 0 
L 2906 525 
Q 2725 213 2448 61 
Q 2172 -91 1784 -91 
Q 1150 -91 751 415 
Q 353 922 353 1747 
Q 353 2572 751 3078 
Q 1150 3584 1784 3584 
Q 2172 3584 2448 3432 
Q 2725 3281 2906 2969 
z
M 947 1747 
Q 947 1113 1208 752 
Q 1469 391 1925 391 
Q 2381 391 2643 752 
Q 2906 1113 2906 1747 
Q 2906 2381 2643 2742 
Q 2381 3103 1925 3103 
Q 1469 3103 1208 2742 
Q 947 2381 947 1747 
z
" transform="scale(0.015625)"/>
       <path id="DejaVuSans-3a" d="M 750 794 
L 1409 794 
L 1409 0 
L 750 0 
L 750 794 
z
M 750 3309 
L 1409 3309 
L 1409 2516 
L 750 2516 
L 750 3309 
z
" transform="scale(0.015625)"/>
       <path id="DejaVuSans-68" d="M 3513 2113 
L 3513 0 
L 2938 0 
L 2938 2094 
Q 2938 2591 2744 2837 
Q 2550 3084 2163 3084 
Q 1697 3084 1428 2787 
Q 1159 2491 1159 1978 
L 1159 0 
L 581 0 
L 581 4863 
L 1159 4863 
L 1159 2956 
Q 1366 3272 1645 3428 
Q 1925 3584 2291 3584 
Q 2894 3584 3203 3211 
Q 3513 2838 3513 2113 
z
" transform="scale(0.015625)"/>
       <path id="DejaVuSans-2d" d="M 313 2009 
L 1997 2009 
L 1997 1497 
L 313 1497 
L 313 2009 
z
" transform="scale(0.015625)"/>
      </defs>
      <use xlink:href="#DejaVuSans-49"/>
      <use xlink:href="#DejaVuSans-6d" x="29.492188"/>
      <use xlink:href="#DejaVuSans-70" x="126.904297"/>
      <use xlink:href="#DejaVuSans-61" x="190.380859"/>
      <use xlink:href="#DejaVuSans-63" x="251.660156"/>
      <use xlink:href="#DejaVuSans-74" x="306.640625"/>
      <use xlink:href="#DejaVuSans-20" x="345.849609"/>
      <use xlink:href="#DejaVuSans-64" x="377.636719"/>
      <use xlink:href="#DejaVuSans-69" x="441.113281"/>
      <use xlink:href="#DejaVuSans-66" x="468.896484"/>
      <use xlink:href="#DejaVuSans-66" x="504.101562"/>
      <use xlink:href="#DejaVuSans-65" x="539.306641"/>
      <use xlink:href="#DejaVuSans-72" x="600.830078"/>
      <use xlink:href="#DejaVuSans-65" x="639.693359"/>
      <use xlink:href="#DejaVuSans-6e" x="701.216797"/>
      <use xlink:href="#DejaVuSans-63" x="764.595703"/>
      <use xlink:href="#DejaVuSans-65" x="819.576172"/>
      <use xlink:href="#DejaVuSans-3a" x="881.099609"/>
      <use xlink:href="#DejaVuSans-20" x="914.791016"/>
      <use xlink:href="#DejaVuSans-77" x="946.578125"/>
      <use xlink:href="#DejaVuSans-69" x="1028.365234"/>
      <use xlink:href="#DejaVuSans-74" x="1056.148438"/>
      <use xlink:href="#DejaVuSans-68" x="1095.357422"/>
      <use xlink:href="#DejaVuSans-20" x="1158.736328"/>
      <use xlink:href="#DejaVuSans-72" x="1190.523438"/>
      <use xlink:href="#DejaVuSans-65" x="1229.386719"/>
      <use xlink:href="#DejaVuSans-70" x="1290.910156"/>
      <use xlink:href="#DejaVuSans-61" x="1354.386719"/>
      <use xlink:href="#DejaVuSans-69" x="1415.666016"/>
      <use xlink:href="#DejaVuSans-72" x="1443.449219"/>
      <use xlink:href="#DejaVuSans-20" x="1484.5625"/>
      <use xlink:href="#DejaVuSans-2d" x="1516.349609"/>
      <use xlink:href="#DejaVuSans-20" x="1552.433594"/>
      <use xlink:href="#DejaVuSans-62" x="1584.220703"/>
      <use xlink:href="#DejaVuSans-61" x="1647.697266"/>
      <use xlink:href="#DejaVuSans-73" x="1708.976562"/>
      <use xlink:href="#DejaVuSans-65" x="1761.076172"/>
      <use xlink:href="#DejaVuSans-6c" x="1822.599609"/>
      <use xlink:href="#DejaVuSans-69" x="1850.382812"/>
      <use xlink:href="#DejaVuSans-6e" x="1878.166016"/>
      <use xlink:href="#DejaVuSans-65" x="1941.544922"/>
     </g>
    </g>
    <g id="line2d_22">
     <path d="M 66.44 38.576563 
L 76.44 38.576563 
L 86.44 38.576563 
" style="fill: none; stroke: #a154a1; stroke-width: 1.5; stroke-linecap: square"/>
    </g>
    <g id="text_20">
     <!-- Mean value (-1.58e+04 kg CO2 eq) -->
     <g transform="translate(94.44 42.076563) scale(0.1 -0.1)">
      <defs>
       <path id="DejaVuSans-4d" d="M 628 4666 
L 1569 4666 
L 2759 1491 
L 3956 4666 
L 4897 4666 
L 4897 0 
L 4281 0 
L 4281 4097 
L 3078 897 
L 2444 897 
L 1241 4097 
L 1241 0 
L 628 0 
L 628 4666 
z
" transform="scale(0.015625)"/>
       <path id="DejaVuSans-76" d="M 191 3500 
L 800 3500 
L 1894 563 
L 2988 3500 
L 3597 3500 
L 2284 0 
L 1503 0 
L 191 3500 
z
" transform="scale(0.015625)"/>
       <path id="DejaVuSans-2e" d="M 684 794 
L 1344 794 
L 1344 0 
L 684 0 
L 684 794 
z
" transform="scale(0.015625)"/>
       <path id="DejaVuSans-2b" d="M 2944 4013 
L 2944 2272 
L 4684 2272 
L 4684 1741 
L 2944 1741 
L 2944 0 
L 2419 0 
L 2419 1741 
L 678 1741 
L 678 2272 
L 2419 2272 
L 2419 4013 
L 2944 4013 
z
" transform="scale(0.015625)"/>
      </defs>
      <use xlink:href="#DejaVuSans-4d"/>
      <use xlink:href="#DejaVuSans-65" x="86.279297"/>
      <use xlink:href="#DejaVuSans-61" x="147.802734"/>
      <use xlink:href="#DejaVuSans-6e" x="209.082031"/>
      <use xlink:href="#DejaVuSans-20" x="272.460938"/>
      <use xlink:href="#DejaVuSans-76" x="304.248047"/>
      <use xlink:href="#DejaVuSans-61" x="363.427734"/>
      <use xlink:href="#DejaVuSans-6c" x="424.707031"/>
      <use xlink:href="#DejaVuSans-75" x="452.490234"/>
      <use xlink:href="#DejaVuSans-65" x="515.869141"/>
      <use xlink:href="#DejaVuSans-20" x="577.392578"/>
      <use xlink:href="#DejaVuSans-28" x="609.179688"/>
      <use xlink:href="#DejaVuSans-2d" x="648.193359"/>
      <use xlink:href="#DejaVuSans-31" x="684.277344"/>
      <use xlink:href="#DejaVuSans-2e" x="747.900391"/>
      <use xlink:href="#DejaVuSans-35" x="779.6875"/>
      <use xlink:href="#DejaVuSans-38" x="843.310547"/>
      <use xlink:href="#DejaVuSans-65" x="906.933594"/>
      <use xlink:href="#DejaVuSans-2b" x="968.457031"/>
      <use xlink:href="#DejaVuSans-30" x="1052.246094"/>
      <use xlink:href="#DejaVuSans-34" x="1115.869141"/>
      <use xlink:href="#DejaVuSans-20" x="1179.492188"/>
      <use xlink:href="#DejaVuSans-6b" x="1211.279297"/>
      <use xlink:href="#DejaVuSans-67" x="1269.189453"/>
      <use xlink:href="#DejaVuSans-20" x="1332.666016"/>
      <use xlink:href="#DejaVuSans-43" x="1364.453125"/>
      <use xlink:href="#DejaVuSans-4f" x="1434.277344"/>
      <use xlink:href="#DejaVuSans-32" x="1512.988281"/>
      <use xlink:href="#DejaVuSans-20" x="1576.611328"/>
      <use xlink:href="#DejaVuSans-65" x="1608.398438"/>
      <use xlink:href="#DejaVuSans-71" x="1669.921875"/>
      <use xlink:href="#DejaVuSans-29" x="1733.398438"/>
     </g>
    </g>
   </g>
   <g id="patch_10">
    <path d="M 76.133333 303.64 
L 77.703392 303.64 
L 77.703392 302.392705 
L 76.133333 302.392705 
z
" clip-path="url(#p5c3c4c195f)" style="fill: #a7b6c1; stroke: #36434c; stroke-linejoin: miter"/>
   </g>
   <g id="patch_11">
    <path d="M 77.703392 303.64 
L 79.27345 303.64 
L 79.27345 299.349304 
L 77.703392 299.349304 
z
" clip-path="url(#p5c3c4c195f)" style="fill: #a7b6c1; stroke: #36434c; stroke-linejoin: miter"/>
   </g>
   <g id="patch_12">
    <path d="M 79.27345 303.64 
L 80.843508 303.64 
L 80.843508 297.902441 
L 79.27345 297.902441 
z
" clip-path="url(#p5c3c4c195f)" style="fill: #a7b6c1; stroke: #36434c; stroke-linejoin: miter"/>
   </g>
   <g id="patch_13">
    <path d="M 80.843508 303.64 
L 82.413567 303.64 
L 82.413567 297.104172 
L 80.843508 297.104172 
z
" clip-path="url(#p5c3c4c195f)" style="fill: #a7b6c1; stroke: #36434c; stroke-linejoin: miter"/>
   </g>
   <g id="patch_14">
    <path d="M 82.413567 303.64 
L 83.983625 303.64 
L 83.983625 295.407851 
L 82.413567 295.407851 
z
" clip-path="url(#p5c3c4c195f)" style="fill: #a7b6c1; stroke: #36434c; stroke-linejoin: miter"/>
   </g>
   <g id="patch_15">
    <path d="M 83.983625 303.64 
L 85.553683 303.64 
L 85.553683 295.008716 
L 83.983625 295.008716 
z
" clip-path="url(#p5c3c4c195f)" style="fill: #a7b6c1; stroke: #36434c; stroke-linejoin: miter"/>
   </g>
   <g id="patch_16">
    <path d="M 85.553683 303.64 
L 87.123742 303.64 
L 87.123742 296.75493 
L 85.553683 296.75493 
z
" clip-path="url(#p5c3c4c195f)" style="fill: #a7b6c1; stroke: #36434c; stroke-linejoin: miter"/>
   </g>
   <g id="patch_17">
    <path d="M 87.123742 303.64 
L 88.6938 303.64 
L 88.6938 297.802658 
L 87.123742 297.802658 
z
" clip-path="url(#p5c3c4c195f)" style="fill: #a7b6c1; stroke: #36434c; stroke-linejoin: miter"/>
   </g>
   <g id="patch_18">
    <path d="M 88.6938 303.64 
L 90.263858 303.64 
L 90.263858 297.453415 
L 88.6938 297.453415 
z
" clip-path="url(#p5c3c4c195f)" style="fill: #a7b6c1; stroke: #36434c; stroke-linejoin: miter"/>
   </g>
   <g id="patch_19">
    <path d="M 90.263858 303.64 
L 91.833917 303.64 
L 91.833917 297.104172 
L 90.263858 297.104172 
z
" clip-path="url(#p5c3c4c195f)" style="fill: #a7b6c1; stroke: #36434c; stroke-linejoin: miter"/>
   </g>
   <g id="patch_20">
    <path d="M 91.833917 303.64 
L 93.403975 303.64 
L 93.403975 300.846058 
L 91.833917 300.846058 
z
" clip-path="url(#p5c3c4c195f)" style="fill: #a7b6c1; stroke: #36434c; stroke-linejoin: miter"/>
   </g>
   <g id="patch_21">
    <path d="M 93.403975 303.64 
L 94.974033 303.64 
L 94.974033 300.796167 
L 93.403975 300.796167 
z
" clip-path="url(#p5c3c4c195f)" style="fill: #a7b6c1; stroke: #36434c; stroke-linejoin: miter"/>
   </g>
   <g id="patch_22">
    <path d="M 94.974033 303.64 
L 96.544092 303.64 
L 96.544092 300.247357 
L 94.974033 300.247357 
z
" clip-path="url(#p5c3c4c195f)" style="fill: #a7b6c1; stroke: #36434c; stroke-linejoin: miter"/>
   </g>
   <g id="patch_23">
    <path d="M 96.544092 303.64 
L 98.11415 303.64 
L 98.11415 300.945842 
L 96.544092 300.945842 
z
" clip-path="url(#p5c3c4c195f)" style="fill: #a7b6c1; stroke: #36434c; stroke-linejoin: miter"/>
   </g>
   <g id="patch_24">
    <path d="M 98.11415 303.64 
L 99.684208 303.64 
L 99.684208 300.945842 
L 98.11415 300.945842 
z
" clip-path="url(#p5c3c4c195f)" style="fill: #a7b6c1; stroke: #36434c; stroke-linejoin: miter"/>
   </g>
   <g id="patch_25">
    <path d="M 99.684208 303.64 
L 101.254266 303.64 
L 101.254266 301.095518 
L 99.684208 301.095518 
z
" clip-path="url(#p5c3c4c195f)" style="fill: #a7b6c1; stroke: #36434c; stroke-linejoin: miter"/>
   </g>
   <g id="patch_26">
    <path d="M 101.254266 303.64 
L 102.824325 303.64 
L 102.824325 300.89595 
L 101.254266 300.89595 
z
" clip-path="url(#p5c3c4c195f)" style="fill: #a7b6c1; stroke: #36434c; stroke-linejoin: miter"/>
   </g>
   <g id="patch_27">
    <path d="M 102.824325 303.64 
L 104.394383 303.64 
L 104.394383 303.64 
L 102.824325 303.64 
z
" clip-path="url(#p5c3c4c195f)" style="fill: #a7b6c1; stroke: #36434c; stroke-linejoin: miter"/>
   </g>
   <g id="patch_28">
    <path d="M 104.394383 303.64 
L 105.964441 303.64 
L 105.964441 300.097681 
L 104.394383 300.097681 
z
" clip-path="url(#p5c3c4c195f)" style="fill: #a7b6c1; stroke: #36434c; stroke-linejoin: miter"/>
   </g>
   <g id="patch_29">
    <path d="M 105.964441 303.64 
L 107.5345 303.64 
L 107.5345 303.64 
L 105.964441 303.64 
z
" clip-path="url(#p5c3c4c195f)" style="fill: #a7b6c1; stroke: #36434c; stroke-linejoin: miter"/>
   </g>
   <g id="patch_30">
    <path d="M 107.5345 303.64 
L 109.104558 303.64 
L 109.104558 301.245193 
L 107.5345 301.245193 
z
" clip-path="url(#p5c3c4c195f)" style="fill: #a7b6c1; stroke: #36434c; stroke-linejoin: miter"/>
   </g>
   <g id="patch_31">
    <path d="M 109.104558 303.64 
L 110.674616 303.64 
L 110.674616 303.64 
L 109.104558 303.64 
z
" clip-path="url(#p5c3c4c195f)" style="fill: #a7b6c1; stroke: #36434c; stroke-linejoin: miter"/>
   </g>
   <g id="patch_32">
    <path d="M 110.674616 303.64 
L 112.244675 303.64 
L 112.244675 301.744111 
L 110.674616 301.744111 
z
" clip-path="url(#p5c3c4c195f)" style="fill: #a7b6c1; stroke: #36434c; stroke-linejoin: miter"/>
   </g>
   <g id="patch_33">
    <path d="M 112.244675 303.64 
L 113.814733 303.64 
L 113.814733 303.64 
L 112.244675 303.64 
z
" clip-path="url(#p5c3c4c195f)" style="fill: #a7b6c1; stroke: #36434c; stroke-linejoin: miter"/>
   </g>
   <g id="patch_34">
    <path d="M 113.814733 303.64 
L 115.384791 303.64 
L 115.384791 303.64 
L 113.814733 303.64 
z
" clip-path="url(#p5c3c4c195f)" style="fill: #a7b6c1; stroke: #36434c; stroke-linejoin: miter"/>
   </g>
   <g id="patch_35">
    <path d="M 115.384791 303.64 
L 116.95485 303.64 
L 116.95485 301.344977 
L 115.384791 301.344977 
z
" clip-path="url(#p5c3c4c195f)" style="fill: #a7b6c1; stroke: #36434c; stroke-linejoin: miter"/>
   </g>
   <g id="patch_36">
    <path d="M 116.95485 303.64 
L 118.524908 303.64 
L 118.524908 303.64 
L 116.95485 303.64 
z
" clip-path="url(#p5c3c4c195f)" style="fill: #a7b6c1; stroke: #36434c; stroke-linejoin: miter"/>
   </g>
   <g id="patch_37">
    <path d="M 118.524908 303.64 
L 120.094966 303.64 
L 120.094966 303.64 
L 118.524908 303.64 
z
" clip-path="url(#p5c3c4c195f)" style="fill: #a7b6c1; stroke: #36434c; stroke-linejoin: miter"/>
   </g>
   <g id="patch_38">
    <path d="M 120.094966 303.64 
L 121.665025 303.64 
L 121.665025 303.64 
L 120.094966 303.64 
z
" clip-path="url(#p5c3c4c195f)" style="fill: #a7b6c1; stroke: #36434c; stroke-linejoin: miter"/>
   </g>
   <g id="patch_39">
    <path d="M 121.665025 303.64 
L 123.235083 303.64 
L 123.235083 301.694219 
L 121.665025 301.694219 
z
" clip-path="url(#p5c3c4c195f)" style="fill: #a7b6c1; stroke: #36434c; stroke-linejoin: miter"/>
   </g>
   <g id="patch_40">
    <path d="M 123.235083 303.64 
L 124.805141 303.64 
L 124.805141 303.64 
L 123.235083 303.64 
z
" clip-path="url(#p5c3c4c195f)" style="fill: #a7b6c1; stroke: #36434c; stroke-linejoin: miter"/>
   </g>
   <g id="patch_41">
    <path d="M 124.805141 303.64 
L 126.3752 303.64 
L 126.3752 303.64 
L 124.805141 303.64 
z
" clip-path="url(#p5c3c4c195f)" style="fill: #a7b6c1; stroke: #36434c; stroke-linejoin: miter"/>
   </g>
   <g id="patch_42">
    <path d="M 126.3752 303.64 
L 127.945258 303.64 
L 127.945258 303.64 
L 126.3752 303.64 
z
" clip-path="url(#p5c3c4c195f)" style="fill: #a7b6c1; stroke: #36434c; stroke-linejoin: miter"/>
   </g>
   <g id="patch_43">
    <path d="M 127.945258 303.64 
L 129.515316 303.64 
L 129.515316 301.494652 
L 127.945258 301.494652 
z
" clip-path="url(#p5c3c4c195f)" style="fill: #a7b6c1; stroke: #36434c; stroke-linejoin: miter"/>
   </g>
   <g id="patch_44">
    <path d="M 129.515316 303.64 
L 131.085375 303.64 
L 131.085375 303.64 
L 129.515316 303.64 
z
" clip-path="url(#p5c3c4c195f)" style="fill: #a7b6c1; stroke: #36434c; stroke-linejoin: miter"/>
   </g>
   <g id="patch_45">
    <path d="M 131.085375 303.64 
L 132.655433 303.64 
L 132.655433 303.64 
L 131.085375 303.64 
z
" clip-path="url(#p5c3c4c195f)" style="fill: #a7b6c1; stroke: #36434c; stroke-linejoin: miter"/>
   </g>
   <g id="patch_46">
    <path d="M 132.655433 303.64 
L 134.225491 303.64 
L 134.225491 303.64 
L 132.655433 303.64 
z
" clip-path="url(#p5c3c4c195f)" style="fill: #a7b6c1; stroke: #36434c; stroke-linejoin: miter"/>
   </g>
   <g id="patch_47">
    <path d="M 134.225491 303.64 
L 135.79555 303.64 
L 135.79555 303.64 
L 134.225491 303.64 
z
" clip-path="url(#p5c3c4c195f)" style="fill: #a7b6c1; stroke: #36434c; stroke-linejoin: miter"/>
   </g>
   <g id="patch_48">
    <path d="M 135.79555 303.64 
L 137.365608 303.64 
L 137.365608 303.64 
L 135.79555 303.64 
z
" clip-path="url(#p5c3c4c195f)" style="fill: #a7b6c1; stroke: #36434c; stroke-linejoin: miter"/>
   </g>
   <g id="patch_49">
    <path d="M 137.365608 303.64 
L 138.935666 303.64 
L 138.935666 298.800494 
L 137.365608 298.800494 
z
" clip-path="url(#p5c3c4c195f)" style="fill: #a7b6c1; stroke: #36434c; stroke-linejoin: miter"/>
   </g>
   <g id="patch_50">
    <path d="M 138.935666 303.64 
L 140.505725 303.64 
L 140.505725 303.64 
L 138.935666 303.64 
z
" clip-path="url(#p5c3c4c195f)" style="fill: #a7b6c1; stroke: #36434c; stroke-linejoin: miter"/>
   </g>
   <g id="patch_51">
    <path d="M 140.505725 303.64 
L 142.075783 303.64 
L 142.075783 303.64 
L 140.505725 303.64 
z
" clip-path="url(#p5c3c4c195f)" style="fill: #a7b6c1; stroke: #36434c; stroke-linejoin: miter"/>
   </g>
   <g id="patch_52">
    <path d="M 142.075783 303.64 
L 143.645841 303.64 
L 143.645841 303.64 
L 142.075783 303.64 
z
" clip-path="url(#p5c3c4c195f)" style="fill: #a7b6c1; stroke: #36434c; stroke-linejoin: miter"/>
   </g>
   <g id="patch_53">
    <path d="M 143.645841 303.64 
L 145.2159 303.64 
L 145.2159 303.64 
L 143.645841 303.64 
z
" clip-path="url(#p5c3c4c195f)" style="fill: #a7b6c1; stroke: #36434c; stroke-linejoin: miter"/>
   </g>
   <g id="patch_54">
    <path d="M 145.2159 303.64 
L 146.785958 303.64 
L 146.785958 303.64 
L 145.2159 303.64 
z
" clip-path="url(#p5c3c4c195f)" style="fill: #a7b6c1; stroke: #36434c; stroke-linejoin: miter"/>
   </g>
   <g id="patch_55">
    <path d="M 146.785958 303.64 
L 148.356016 303.64 
L 148.356016 303.64 
L 146.785958 303.64 
z
" clip-path="url(#p5c3c4c195f)" style="fill: #a7b6c1; stroke: #36434c; stroke-linejoin: miter"/>
   </g>
   <g id="patch_56">
    <path d="M 148.356016 303.64 
L 149.926075 303.64 
L 149.926075 303.64 
L 148.356016 303.64 
z
" clip-path="url(#p5c3c4c195f)" style="fill: #a7b6c1; stroke: #36434c; stroke-linejoin: miter"/>
   </g>
   <g id="patch_57">
    <path d="M 149.926075 303.64 
L 151.496133 303.64 
L 151.496133 303.64 
L 149.926075 303.64 
z
" clip-path="url(#p5c3c4c195f)" style="fill: #a7b6c1; stroke: #36434c; stroke-linejoin: miter"/>
   </g>
   <g id="patch_58">
    <path d="M 151.496133 303.64 
L 153.066191 303.64 
L 153.066191 298.102009 
L 151.496133 298.102009 
z
" clip-path="url(#p5c3c4c195f)" style="fill: #a7b6c1; stroke: #36434c; stroke-linejoin: miter"/>
   </g>
   <g id="patch_59">
    <path d="M 153.066191 303.64 
L 154.636249 303.64 
L 154.636249 303.64 
L 153.066191 303.64 
z
" clip-path="url(#p5c3c4c195f)" style="fill: #a7b6c1; stroke: #36434c; stroke-linejoin: miter"/>
   </g>
   <g id="patch_60">
    <path d="M 154.636249 303.64 
L 156.206308 303.64 
L 156.206308 303.64 
L 154.636249 303.64 
z
" clip-path="url(#p5c3c4c195f)" style="fill: #a7b6c1; stroke: #36434c; stroke-linejoin: miter"/>
   </g>
   <g id="patch_61">
    <path d="M 156.206308 303.64 
L 157.776366 303.64 
L 157.776366 303.64 
L 156.206308 303.64 
z
" clip-path="url(#p5c3c4c195f)" style="fill: #a7b6c1; stroke: #36434c; stroke-linejoin: miter"/>
   </g>
   <g id="patch_62">
    <path d="M 157.776366 303.64 
L 159.346424 303.64 
L 159.346424 303.64 
L 157.776366 303.64 
z
" clip-path="url(#p5c3c4c195f)" style="fill: #a7b6c1; stroke: #36434c; stroke-linejoin: miter"/>
   </g>
   <g id="patch_63">
    <path d="M 159.346424 303.64 
L 160.916483 303.64 
L 160.916483 303.64 
L 159.346424 303.64 
z
" clip-path="url(#p5c3c4c195f)" style="fill: #a7b6c1; stroke: #36434c; stroke-linejoin: miter"/>
   </g>
   <g id="patch_64">
    <path d="M 160.916483 303.64 
L 162.486541 303.64 
L 162.486541 303.64 
L 160.916483 303.64 
z
" clip-path="url(#p5c3c4c195f)" style="fill: #a7b6c1; stroke: #36434c; stroke-linejoin: miter"/>
   </g>
   <g id="patch_65">
    <path d="M 162.486541 303.64 
L 164.056599 303.64 
L 164.056599 303.64 
L 162.486541 303.64 
z
" clip-path="url(#p5c3c4c195f)" style="fill: #a7b6c1; stroke: #36434c; stroke-linejoin: miter"/>
   </g>
   <g id="patch_66">
    <path d="M 164.056599 303.64 
L 165.626658 303.64 
L 165.626658 303.64 
L 164.056599 303.64 
z
" clip-path="url(#p5c3c4c195f)" style="fill: #a7b6c1; stroke: #36434c; stroke-linejoin: miter"/>
   </g>
   <g id="patch_67">
    <path d="M 165.626658 303.64 
L 167.196716 303.64 
L 167.196716 303.64 
L 165.626658 303.64 
z
" clip-path="url(#p5c3c4c195f)" style="fill: #a7b6c1; stroke: #36434c; stroke-linejoin: miter"/>
   </g>
   <g id="patch_68">
    <path d="M 167.196716 303.64 
L 168.766774 303.64 
L 168.766774 303.64 
L 167.196716 303.64 
z
" clip-path="url(#p5c3c4c195f)" style="fill: #a7b6c1; stroke: #36434c; stroke-linejoin: miter"/>
   </g>
   <g id="patch_69">
    <path d="M 168.766774 303.64 
L 170.336833 303.64 
L 170.336833 303.64 
L 168.766774 303.64 
z
" clip-path="url(#p5c3c4c195f)" style="fill: #a7b6c1; stroke: #36434c; stroke-linejoin: miter"/>
   </g>
   <g id="patch_70">
    <path d="M 170.336833 303.64 
L 171.906891 303.64 
L 171.906891 303.64 
L 170.336833 303.64 
z
" clip-path="url(#p5c3c4c195f)" style="fill: #a7b6c1; stroke: #36434c; stroke-linejoin: miter"/>
   </g>
   <g id="patch_71">
    <path d="M 171.906891 303.64 
L 173.476949 303.64 
L 173.476949 298.251684 
L 171.906891 298.251684 
z
" clip-path="url(#p5c3c4c195f)" style="fill: #a7b6c1; stroke: #36434c; stroke-linejoin: miter"/>
   </g>
   <g id="patch_72">
    <path d="M 173.476949 303.64 
L 175.047008 303.64 
L 175.047008 303.64 
L 173.476949 303.64 
z
" clip-path="url(#p5c3c4c195f)" style="fill: #a7b6c1; stroke: #36434c; stroke-linejoin: miter"/>
   </g>
   <g id="patch_73">
    <path d="M 175.047008 303.64 
L 176.617066 303.64 
L 176.617066 303.64 
L 175.047008 303.64 
z
" clip-path="url(#p5c3c4c195f)" style="fill: #a7b6c1; stroke: #36434c; stroke-linejoin: miter"/>
   </g>
   <g id="patch_74">
    <path d="M 176.617066 303.64 
L 178.187124 303.64 
L 178.187124 303.64 
L 176.617066 303.64 
z
" clip-path="url(#p5c3c4c195f)" style="fill: #a7b6c1; stroke: #36434c; stroke-linejoin: miter"/>
   </g>
   <g id="patch_75">
    <path d="M 178.187124 303.64 
L 179.757183 303.64 
L 179.757183 303.64 
L 178.187124 303.64 
z
" clip-path="url(#p5c3c4c195f)" style="fill: #a7b6c1; stroke: #36434c; stroke-linejoin: miter"/>
   </g>
   <g id="patch_76">
    <path d="M 179.757183 303.64 
L 181.327241 303.64 
L 181.327241 303.64 
L 179.757183 303.64 
z
" clip-path="url(#p5c3c4c195f)" style="fill: #a7b6c1; stroke: #36434c; stroke-linejoin: miter"/>
   </g>
   <g id="patch_77">
    <path d="M 181.327241 303.64 
L 182.897299 303.64 
L 182.897299 303.64 
L 181.327241 303.64 
z
" clip-path="url(#p5c3c4c195f)" style="fill: #a7b6c1; stroke: #36434c; stroke-linejoin: miter"/>
   </g>
   <g id="patch_78">
    <path d="M 182.897299 303.64 
L 184.467358 303.64 
L 184.467358 303.64 
L 182.897299 303.64 
z
" clip-path="url(#p5c3c4c195f)" style="fill: #a7b6c1; stroke: #36434c; stroke-linejoin: miter"/>
   </g>
   <g id="patch_79">
    <path d="M 184.467358 303.64 
L 186.037416 303.64 
L 186.037416 303.64 
L 184.467358 303.64 
z
" clip-path="url(#p5c3c4c195f)" style="fill: #a7b6c1; stroke: #36434c; stroke-linejoin: miter"/>
   </g>
   <g id="patch_80">
    <path d="M 186.037416 303.64 
L 187.607474 303.64 
L 187.607474 303.64 
L 186.037416 303.64 
z
" clip-path="url(#p5c3c4c195f)" style="fill: #a7b6c1; stroke: #36434c; stroke-linejoin: miter"/>
   </g>
   <g id="patch_81">
    <path d="M 187.607474 303.64 
L 189.177533 303.64 
L 189.177533 303.64 
L 187.607474 303.64 
z
" clip-path="url(#p5c3c4c195f)" style="fill: #a7b6c1; stroke: #36434c; stroke-linejoin: miter"/>
   </g>
   <g id="patch_82">
    <path d="M 189.177533 303.64 
L 190.747591 303.64 
L 190.747591 303.64 
L 189.177533 303.64 
z
" clip-path="url(#p5c3c4c195f)" style="fill: #a7b6c1; stroke: #36434c; stroke-linejoin: miter"/>
   </g>
   <g id="patch_83">
    <path d="M 190.747591 303.64 
L 192.317649 303.64 
L 192.317649 303.64 
L 190.747591 303.64 
z
" clip-path="url(#p5c3c4c195f)" style="fill: #a7b6c1; stroke: #36434c; stroke-linejoin: miter"/>
   </g>
   <g id="patch_84">
    <path d="M 192.317649 303.64 
L 193.887708 303.64 
L 193.887708 303.64 
L 192.317649 303.64 
z
" clip-path="url(#p5c3c4c195f)" style="fill: #a7b6c1; stroke: #36434c; stroke-linejoin: miter"/>
   </g>
   <g id="patch_85">
    <path d="M 193.887708 303.64 
L 195.457766 303.64 
L 195.457766 303.64 
L 193.887708 303.64 
z
" clip-path="url(#p5c3c4c195f)" style="fill: #a7b6c1; stroke: #36434c; stroke-linejoin: miter"/>
   </g>
   <g id="patch_86">
    <path d="M 195.457766 303.64 
L 197.027824 303.64 
L 197.027824 303.64 
L 195.457766 303.64 
z
" clip-path="url(#p5c3c4c195f)" style="fill: #a7b6c1; stroke: #36434c; stroke-linejoin: miter"/>
   </g>
   <g id="patch_87">
    <path d="M 197.027824 303.64 
L 198.597883 303.64 
L 198.597883 303.64 
L 197.027824 303.64 
z
" clip-path="url(#p5c3c4c195f)" style="fill: #a7b6c1; stroke: #36434c; stroke-linejoin: miter"/>
   </g>
   <g id="patch_88">
    <path d="M 198.597883 303.64 
L 200.167941 303.64 
L 200.167941 303.64 
L 198.597883 303.64 
z
" clip-path="url(#p5c3c4c195f)" style="fill: #a7b6c1; stroke: #36434c; stroke-linejoin: miter"/>
   </g>
   <g id="patch_89">
    <path d="M 200.167941 303.64 
L 201.737999 303.64 
L 201.737999 303.64 
L 200.167941 303.64 
z
" clip-path="url(#p5c3c4c195f)" style="fill: #a7b6c1; stroke: #36434c; stroke-linejoin: miter"/>
   </g>
   <g id="patch_90">
    <path d="M 201.737999 303.64 
L 203.308057 303.64 
L 203.308057 303.64 
L 201.737999 303.64 
z
" clip-path="url(#p5c3c4c195f)" style="fill: #a7b6c1; stroke: #36434c; stroke-linejoin: miter"/>
   </g>
   <g id="patch_91">
    <path d="M 203.308057 303.64 
L 204.878116 303.64 
L 204.878116 303.64 
L 203.308057 303.64 
z
" clip-path="url(#p5c3c4c195f)" style="fill: #a7b6c1; stroke: #36434c; stroke-linejoin: miter"/>
   </g>
   <g id="patch_92">
    <path d="M 204.878116 303.64 
L 206.448174 303.64 
L 206.448174 298.551035 
L 204.878116 298.551035 
z
" clip-path="url(#p5c3c4c195f)" style="fill: #a7b6c1; stroke: #36434c; stroke-linejoin: miter"/>
   </g>
   <g id="patch_93">
    <path d="M 206.448174 303.64 
L 208.018232 303.64 
L 208.018232 303.64 
L 206.448174 303.64 
z
" clip-path="url(#p5c3c4c195f)" style="fill: #a7b6c1; stroke: #36434c; stroke-linejoin: miter"/>
   </g>
   <g id="patch_94">
    <path d="M 208.018232 303.64 
L 209.588291 303.64 
L 209.588291 303.64 
L 208.018232 303.64 
z
" clip-path="url(#p5c3c4c195f)" style="fill: #a7b6c1; stroke: #36434c; stroke-linejoin: miter"/>
   </g>
   <g id="patch_95">
    <path d="M 209.588291 303.64 
L 211.158349 303.64 
L 211.158349 303.64 
L 209.588291 303.64 
z
" clip-path="url(#p5c3c4c195f)" style="fill: #a7b6c1; stroke: #36434c; stroke-linejoin: miter"/>
   </g>
   <g id="patch_96">
    <path d="M 211.158349 303.64 
L 212.728407 303.64 
L 212.728407 303.64 
L 211.158349 303.64 
z
" clip-path="url(#p5c3c4c195f)" style="fill: #a7b6c1; stroke: #36434c; stroke-linejoin: miter"/>
   </g>
   <g id="patch_97">
    <path d="M 212.728407 303.64 
L 214.298466 303.64 
L 214.298466 303.64 
L 212.728407 303.64 
z
" clip-path="url(#p5c3c4c195f)" style="fill: #a7b6c1; stroke: #36434c; stroke-linejoin: miter"/>
   </g>
   <g id="patch_98">
    <path d="M 214.298466 303.64 
L 215.868524 303.64 
L 215.868524 303.64 
L 214.298466 303.64 
z
" clip-path="url(#p5c3c4c195f)" style="fill: #a7b6c1; stroke: #36434c; stroke-linejoin: miter"/>
   </g>
   <g id="patch_99">
    <path d="M 215.868524 303.64 
L 217.438582 303.64 
L 217.438582 303.64 
L 215.868524 303.64 
z
" clip-path="url(#p5c3c4c195f)" style="fill: #a7b6c1; stroke: #36434c; stroke-linejoin: miter"/>
   </g>
   <g id="patch_100">
    <path d="M 217.438582 303.64 
L 219.008641 303.64 
L 219.008641 303.64 
L 217.438582 303.64 
z
" clip-path="url(#p5c3c4c195f)" style="fill: #a7b6c1; stroke: #36434c; stroke-linejoin: miter"/>
   </g>
   <g id="patch_101">
    <path d="M 219.008641 303.64 
L 220.578699 303.64 
L 220.578699 303.64 
L 219.008641 303.64 
z
" clip-path="url(#p5c3c4c195f)" style="fill: #a7b6c1; stroke: #36434c; stroke-linejoin: miter"/>
   </g>
   <g id="patch_102">
    <path d="M 220.578699 303.64 
L 222.148757 303.64 
L 222.148757 303.64 
L 220.578699 303.64 
z
" clip-path="url(#p5c3c4c195f)" style="fill: #a7b6c1; stroke: #36434c; stroke-linejoin: miter"/>
   </g>
   <g id="patch_103">
    <path d="M 222.148757 303.64 
L 223.718816 303.64 
L 223.718816 303.64 
L 222.148757 303.64 
z
" clip-path="url(#p5c3c4c195f)" style="fill: #a7b6c1; stroke: #36434c; stroke-linejoin: miter"/>
   </g>
   <g id="patch_104">
    <path d="M 223.718816 303.64 
L 225.288874 303.64 
L 225.288874 303.64 
L 223.718816 303.64 
z
" clip-path="url(#p5c3c4c195f)" style="fill: #a7b6c1; stroke: #36434c; stroke-linejoin: miter"/>
   </g>
   <g id="patch_105">
    <path d="M 225.288874 303.64 
L 226.858932 303.64 
L 226.858932 303.64 
L 225.288874 303.64 
z
" clip-path="url(#p5c3c4c195f)" style="fill: #a7b6c1; stroke: #36434c; stroke-linejoin: miter"/>
   </g>
   <g id="patch_106">
    <path d="M 226.858932 303.64 
L 228.428991 303.64 
L 228.428991 303.64 
L 226.858932 303.64 
z
" clip-path="url(#p5c3c4c195f)" style="fill: #a7b6c1; stroke: #36434c; stroke-linejoin: miter"/>
   </g>
   <g id="patch_107">
    <path d="M 228.428991 303.64 
L 229.999049 303.64 
L 229.999049 303.64 
L 228.428991 303.64 
z
" clip-path="url(#p5c3c4c195f)" style="fill: #a7b6c1; stroke: #36434c; stroke-linejoin: miter"/>
   </g>
   <g id="patch_108">
    <path d="M 229.999049 303.64 
L 231.569107 303.64 
L 231.569107 303.64 
L 229.999049 303.64 
z
" clip-path="url(#p5c3c4c195f)" style="fill: #a7b6c1; stroke: #36434c; stroke-linejoin: miter"/>
   </g>
   <g id="patch_109">
    <path d="M 231.569107 303.64 
L 233.139166 303.64 
L 233.139166 303.64 
L 231.569107 303.64 
z
" clip-path="url(#p5c3c4c195f)" style="fill: #a7b6c1; stroke: #36434c; stroke-linejoin: miter"/>
   </g>
   <g id="patch_110">
    <path d="M 233.139166 303.64 
L 234.709224 303.64 
L 234.709224 303.64 
L 233.139166 303.64 
z
" clip-path="url(#p5c3c4c195f)" style="fill: #a7b6c1; stroke: #36434c; stroke-linejoin: miter"/>
   </g>
   <g id="patch_111">
    <path d="M 234.709224 303.64 
L 236.279282 303.64 
L 236.279282 303.64 
L 234.709224 303.64 
z
" clip-path="url(#p5c3c4c195f)" style="fill: #a7b6c1; stroke: #36434c; stroke-linejoin: miter"/>
   </g>
   <g id="patch_112">
    <path d="M 236.279282 303.64 
L 237.849341 303.64 
L 237.849341 303.64 
L 236.279282 303.64 
z
" clip-path="url(#p5c3c4c195f)" style="fill: #a7b6c1; stroke: #36434c; stroke-linejoin: miter"/>
   </g>
   <g id="patch_113">
    <path d="M 237.849341 303.64 
L 239.419399 303.64 
L 239.419399 303.64 
L 237.849341 303.64 
z
" clip-path="url(#p5c3c4c195f)" style="fill: #a7b6c1; stroke: #36434c; stroke-linejoin: miter"/>
   </g>
   <g id="patch_114">
    <path d="M 239.419399 303.64 
L 240.989457 303.64 
L 240.989457 303.64 
L 239.419399 303.64 
z
" clip-path="url(#p5c3c4c195f)" style="fill: #a7b6c1; stroke: #36434c; stroke-linejoin: miter"/>
   </g>
   <g id="patch_115">
    <path d="M 240.989457 303.64 
L 242.559516 303.64 
L 242.559516 303.64 
L 240.989457 303.64 
z
" clip-path="url(#p5c3c4c195f)" style="fill: #a7b6c1; stroke: #36434c; stroke-linejoin: miter"/>
   </g>
   <g id="patch_116">
    <path d="M 242.559516 303.64 
L 244.129574 303.64 
L 244.129574 303.64 
L 242.559516 303.64 
z
" clip-path="url(#p5c3c4c195f)" style="fill: #a7b6c1; stroke: #36434c; stroke-linejoin: miter"/>
   </g>
   <g id="patch_117">
    <path d="M 244.129574 303.64 
L 245.699632 303.64 
L 245.699632 303.64 
L 244.129574 303.64 
z
" clip-path="url(#p5c3c4c195f)" style="fill: #a7b6c1; stroke: #36434c; stroke-linejoin: miter"/>
   </g>
   <g id="patch_118">
    <path d="M 245.699632 303.64 
L 247.269691 303.64 
L 247.269691 303.64 
L 245.699632 303.64 
z
" clip-path="url(#p5c3c4c195f)" style="fill: #a7b6c1; stroke: #36434c; stroke-linejoin: miter"/>
   </g>
   <g id="patch_119">
    <path d="M 247.269691 303.64 
L 248.839749 303.64 
L 248.839749 303.64 
L 247.269691 303.64 
z
" clip-path="url(#p5c3c4c195f)" style="fill: #a7b6c1; stroke: #36434c; stroke-linejoin: miter"/>
   </g>
   <g id="patch_120">
    <path d="M 248.839749 303.64 
L 250.409807 303.64 
L 250.409807 303.64 
L 248.839749 303.64 
z
" clip-path="url(#p5c3c4c195f)" style="fill: #a7b6c1; stroke: #36434c; stroke-linejoin: miter"/>
   </g>
   <g id="patch_121">
    <path d="M 250.409807 303.64 
L 251.979865 303.64 
L 251.979865 303.64 
L 250.409807 303.64 
z
" clip-path="url(#p5c3c4c195f)" style="fill: #a7b6c1; stroke: #36434c; stroke-linejoin: miter"/>
   </g>
   <g id="patch_122">
    <path d="M 251.979865 303.64 
L 253.549924 303.64 
L 253.549924 303.64 
L 251.979865 303.64 
z
" clip-path="url(#p5c3c4c195f)" style="fill: #a7b6c1; stroke: #36434c; stroke-linejoin: miter"/>
   </g>
   <g id="patch_123">
    <path d="M 253.549924 303.64 
L 255.119982 303.64 
L 255.119982 303.09119 
L 253.549924 303.09119 
z
" clip-path="url(#p5c3c4c195f)" style="fill: #a7b6c1; stroke: #36434c; stroke-linejoin: miter"/>
   </g>
   <g id="patch_124">
    <path d="M 255.119982 303.64 
L 256.69004 303.64 
L 256.69004 299.548871 
L 255.119982 299.548871 
z
" clip-path="url(#p5c3c4c195f)" style="fill: #a7b6c1; stroke: #36434c; stroke-linejoin: miter"/>
   </g>
   <g id="patch_125">
    <path d="M 256.69004 303.64 
L 258.260099 303.64 
L 258.260099 298.301576 
L 256.69004 298.301576 
z
" clip-path="url(#p5c3c4c195f)" style="fill: #a7b6c1; stroke: #36434c; stroke-linejoin: miter"/>
   </g>
   <g id="patch_126">
    <path d="M 258.260099 303.64 
L 259.830157 303.64 
L 259.830157 296.75493 
L 258.260099 296.75493 
z
" clip-path="url(#p5c3c4c195f)" style="fill: #a7b6c1; stroke: #36434c; stroke-linejoin: miter"/>
   </g>
   <g id="patch_127">
    <path d="M 259.830157 303.64 
L 261.400215 303.64 
L 261.400215 295.856877 
L 259.830157 295.856877 
z
" clip-path="url(#p5c3c4c195f)" style="fill: #a7b6c1; stroke: #36434c; stroke-linejoin: miter"/>
   </g>
   <g id="patch_128">
    <path d="M 261.400215 303.64 
L 262.970274 303.64 
L 262.970274 294.859041 
L 261.400215 294.859041 
z
" clip-path="url(#p5c3c4c195f)" style="fill: #a7b6c1; stroke: #36434c; stroke-linejoin: miter"/>
   </g>
   <g id="patch_129">
    <path d="M 262.970274 303.64 
L 264.540332 303.64 
L 264.540332 296.355795 
L 262.970274 296.355795 
z
" clip-path="url(#p5c3c4c195f)" style="fill: #a7b6c1; stroke: #36434c; stroke-linejoin: miter"/>
   </g>
   <g id="patch_130">
    <path d="M 264.540332 303.64 
L 266.11039 303.64 
L 266.11039 298.750602 
L 264.540332 298.750602 
z
" clip-path="url(#p5c3c4c195f)" style="fill: #a7b6c1; stroke: #36434c; stroke-linejoin: miter"/>
   </g>
   <g id="patch_131">
    <path d="M 266.11039 303.64 
L 267.680449 303.64 
L 267.680449 298.95017 
L 266.11039 298.95017 
z
" clip-path="url(#p5c3c4c195f)" style="fill: #a7b6c1; stroke: #36434c; stroke-linejoin: miter"/>
   </g>
   <g id="patch_132">
    <path d="M 267.680449 303.64 
L 269.250507 303.64 
L 269.250507 298.551035 
L 267.680449 298.551035 
z
" clip-path="url(#p5c3c4c195f)" style="fill: #a7b6c1; stroke: #36434c; stroke-linejoin: miter"/>
   </g>
   <g id="patch_133">
    <path d="M 269.250507 303.64 
L 270.820565 303.64 
L 270.820565 297.702874 
L 269.250507 297.702874 
z
" clip-path="url(#p5c3c4c195f)" style="fill: #a7b6c1; stroke: #36434c; stroke-linejoin: miter"/>
   </g>
   <g id="patch_134">
    <path d="M 270.820565 303.64 
L 272.390624 303.64 
L 272.390624 300.89595 
L 270.820565 300.89595 
z
" clip-path="url(#p5c3c4c195f)" style="fill: #a7b6c1; stroke: #36434c; stroke-linejoin: miter"/>
   </g>
   <g id="patch_135">
    <path d="M 272.390624 303.64 
L 273.960682 303.64 
L 273.960682 296.056444 
L 272.390624 296.056444 
z
" clip-path="url(#p5c3c4c195f)" style="fill: #a7b6c1; stroke: #36434c; stroke-linejoin: miter"/>
   </g>
   <g id="patch_136">
    <path d="M 273.960682 303.64 
L 275.53074 303.64 
L 275.53074 301.794003 
L 273.960682 301.794003 
z
" clip-path="url(#p5c3c4c195f)" style="fill: #a7b6c1; stroke: #36434c; stroke-linejoin: miter"/>
   </g>
   <g id="patch_137">
    <path d="M 275.53074 303.64 
L 277.100799 303.64 
L 277.100799 301.44476 
L 275.53074 301.44476 
z
" clip-path="url(#p5c3c4c195f)" style="fill: #a7b6c1; stroke: #36434c; stroke-linejoin: miter"/>
   </g>
   <g id="patch_138">
    <path d="M 277.100799 303.64 
L 278.670857 303.64 
L 278.670857 301.794003 
L 277.100799 301.794003 
z
" clip-path="url(#p5c3c4c195f)" style="fill: #a7b6c1; stroke: #36434c; stroke-linejoin: miter"/>
   </g>
   <g id="patch_139">
    <path d="M 278.670857 303.64 
L 280.240915 303.64 
L 280.240915 303.64 
L 278.670857 303.64 
z
" clip-path="url(#p5c3c4c195f)" style="fill: #a7b6c1; stroke: #36434c; stroke-linejoin: miter"/>
   </g>
   <g id="patch_140">
    <path d="M 280.240915 303.64 
L 281.810974 303.64 
L 281.810974 301.095518 
L 280.240915 301.095518 
z
" clip-path="url(#p5c3c4c195f)" style="fill: #a7b6c1; stroke: #36434c; stroke-linejoin: miter"/>
   </g>
   <g id="patch_141">
    <path d="M 281.810974 303.64 
L 283.381032 303.64 
L 283.381032 301.694219 
L 281.810974 301.694219 
z
" clip-path="url(#p5c3c4c195f)" style="fill: #a7b6c1; stroke: #36434c; stroke-linejoin: miter"/>
   </g>
   <g id="patch_142">
    <path d="M 283.381032 303.64 
L 284.95109 303.64 
L 284.95109 303.64 
L 283.381032 303.64 
z
" clip-path="url(#p5c3c4c195f)" style="fill: #a7b6c1; stroke: #36434c; stroke-linejoin: miter"/>
   </g>
   <g id="patch_143">
    <path d="M 284.95109 303.64 
L 286.521149 303.64 
L 286.521149 301.794003 
L 284.95109 301.794003 
z
" clip-path="url(#p5c3c4c195f)" style="fill: #a7b6c1; stroke: #36434c; stroke-linejoin: miter"/>
   </g>
   <g id="patch_144">
    <path d="M 286.521149 303.64 
L 288.091207 303.64 
L 288.091207 303.64 
L 286.521149 303.64 
z
" clip-path="url(#p5c3c4c195f)" style="fill: #a7b6c1; stroke: #36434c; stroke-linejoin: miter"/>
   </g>
   <g id="patch_145">
    <path d="M 288.091207 303.64 
L 289.661265 303.64 
L 289.661265 300.945842 
L 288.091207 300.945842 
z
" clip-path="url(#p5c3c4c195f)" style="fill: #a7b6c1; stroke: #36434c; stroke-linejoin: miter"/>
   </g>
   <g id="patch_146">
    <path d="M 289.661265 303.64 
L 291.231324 303.64 
L 291.231324 303.64 
L 289.661265 303.64 
z
" clip-path="url(#p5c3c4c195f)" style="fill: #a7b6c1; stroke: #36434c; stroke-linejoin: miter"/>
   </g>
   <g id="patch_147">
    <path d="M 291.231324 303.64 
L 292.801382 303.64 
L 292.801382 303.64 
L 291.231324 303.64 
z
" clip-path="url(#p5c3c4c195f)" style="fill: #a7b6c1; stroke: #36434c; stroke-linejoin: miter"/>
   </g>
   <g id="patch_148">
    <path d="M 292.801382 303.64 
L 294.37144 303.64 
L 294.37144 301.544544 
L 292.801382 301.544544 
z
" clip-path="url(#p5c3c4c195f)" style="fill: #a7b6c1; stroke: #36434c; stroke-linejoin: miter"/>
   </g>
   <g id="patch_149">
    <path d="M 294.37144 303.64 
L 295.941499 303.64 
L 295.941499 303.64 
L 294.37144 303.64 
z
" clip-path="url(#p5c3c4c195f)" style="fill: #a7b6c1; stroke: #36434c; stroke-linejoin: miter"/>
   </g>
   <g id="patch_150">
    <path d="M 295.941499 303.64 
L 297.511557 303.64 
L 297.511557 303.64 
L 295.941499 303.64 
z
" clip-path="url(#p5c3c4c195f)" style="fill: #a7b6c1; stroke: #36434c; stroke-linejoin: miter"/>
   </g>
   <g id="patch_151">
    <path d="M 297.511557 303.64 
L 299.081615 303.64 
L 299.081615 303.64 
L 297.511557 303.64 
z
" clip-path="url(#p5c3c4c195f)" style="fill: #a7b6c1; stroke: #36434c; stroke-linejoin: miter"/>
   </g>
   <g id="patch_152">
    <path d="M 299.081615 303.64 
L 300.651673 303.64 
L 300.651673 301.644327 
L 299.081615 301.644327 
z
" clip-path="url(#p5c3c4c195f)" style="fill: #a7b6c1; stroke: #36434c; stroke-linejoin: miter"/>
   </g>
   <g id="patch_153">
    <path d="M 300.651673 303.64 
L 302.221732 303.64 
L 302.221732 303.64 
L 300.651673 303.64 
z
" clip-path="url(#p5c3c4c195f)" style="fill: #a7b6c1; stroke: #36434c; stroke-linejoin: miter"/>
   </g>
   <g id="patch_154">
    <path d="M 302.221732 303.64 
L 303.79179 303.64 
L 303.79179 303.64 
L 302.221732 303.64 
z
" clip-path="url(#p5c3c4c195f)" style="fill: #a7b6c1; stroke: #36434c; stroke-linejoin: miter"/>
   </g>
   <g id="patch_155">
    <path d="M 303.79179 303.64 
L 305.361848 303.64 
L 305.361848 303.64 
L 303.79179 303.64 
z
" clip-path="url(#p5c3c4c195f)" style="fill: #a7b6c1; stroke: #36434c; stroke-linejoin: miter"/>
   </g>
   <g id="patch_156">
    <path d="M 305.361848 303.64 
L 306.931907 303.64 
L 306.931907 298.900278 
L 305.361848 298.900278 
z
" clip-path="url(#p5c3c4c195f)" style="fill: #a7b6c1; stroke: #36434c; stroke-linejoin: miter"/>
   </g>
   <g id="patch_157">
    <path d="M 306.931907 303.64 
L 308.501965 303.64 
L 308.501965 303.64 
L 306.931907 303.64 
z
" clip-path="url(#p5c3c4c195f)" style="fill: #a7b6c1; stroke: #36434c; stroke-linejoin: miter"/>
   </g>
   <g id="patch_158">
    <path d="M 308.501965 303.64 
L 310.072023 303.64 
L 310.072023 303.64 
L 308.501965 303.64 
z
" clip-path="url(#p5c3c4c195f)" style="fill: #a7b6c1; stroke: #36434c; stroke-linejoin: miter"/>
   </g>
   <g id="patch_159">
    <path d="M 310.072023 303.64 
L 311.642082 303.64 
L 311.642082 303.64 
L 310.072023 303.64 
z
" clip-path="url(#p5c3c4c195f)" style="fill: #a7b6c1; stroke: #36434c; stroke-linejoin: miter"/>
   </g>
   <g id="patch_160">
    <path d="M 311.642082 303.64 
L 313.21214 303.64 
L 313.21214 303.64 
L 311.642082 303.64 
z
" clip-path="url(#p5c3c4c195f)" style="fill: #a7b6c1; stroke: #36434c; stroke-linejoin: miter"/>
   </g>
   <g id="patch_161">
    <path d="M 313.21214 303.64 
L 314.782198 303.64 
L 314.782198 301.893787 
L 313.21214 301.893787 
z
" clip-path="url(#p5c3c4c195f)" style="fill: #a7b6c1; stroke: #36434c; stroke-linejoin: miter"/>
   </g>
   <g id="patch_162">
    <path d="M 314.782198 303.64 
L 316.352257 303.64 
L 316.352257 299.099845 
L 314.782198 299.099845 
z
" clip-path="url(#p5c3c4c195f)" style="fill: #a7b6c1; stroke: #36434c; stroke-linejoin: miter"/>
   </g>
   <g id="patch_163">
    <path d="M 316.352257 303.64 
L 317.922315 303.64 
L 317.922315 292.36445 
L 316.352257 292.36445 
z
" clip-path="url(#p5c3c4c195f)" style="fill: #a7b6c1; stroke: #36434c; stroke-linejoin: miter"/>
   </g>
   <g id="patch_164">
    <path d="M 317.922315 303.64 
L 319.492373 303.64 
L 319.492373 296.75493 
L 317.922315 296.75493 
z
" clip-path="url(#p5c3c4c195f)" style="fill: #a7b6c1; stroke: #36434c; stroke-linejoin: miter"/>
   </g>
   <g id="patch_165">
    <path d="M 319.492373 303.64 
L 321.062432 303.64 
L 321.062432 295.457743 
L 319.492373 295.457743 
z
" clip-path="url(#p5c3c4c195f)" style="fill: #a7b6c1; stroke: #36434c; stroke-linejoin: miter"/>
   </g>
   <g id="patch_166">
    <path d="M 321.062432 303.64 
L 322.63249 303.64 
L 322.63249 296.006553 
L 321.062432 296.006553 
z
" clip-path="url(#p5c3c4c195f)" style="fill: #a7b6c1; stroke: #36434c; stroke-linejoin: miter"/>
   </g>
   <g id="patch_167">
    <path d="M 322.63249 303.64 
L 324.202548 303.64 
L 324.202548 296.256012 
L 322.63249 296.256012 
z
" clip-path="url(#p5c3c4c195f)" style="fill: #a7b6c1; stroke: #36434c; stroke-linejoin: miter"/>
   </g>
   <g id="patch_168">
    <path d="M 324.202548 303.64 
L 325.772607 303.64 
L 325.772607 297.85255 
L 324.202548 297.85255 
z
" clip-path="url(#p5c3c4c195f)" style="fill: #a7b6c1; stroke: #36434c; stroke-linejoin: miter"/>
   </g>
   <g id="patch_169">
    <path d="M 325.772607 303.64 
L 327.342665 303.64 
L 327.342665 298.70071 
L 325.772607 298.70071 
z
" clip-path="url(#p5c3c4c195f)" style="fill: #a7b6c1; stroke: #36434c; stroke-linejoin: miter"/>
   </g>
   <g id="patch_170">
    <path d="M 327.342665 303.64 
L 328.912723 303.64 
L 328.912723 297.054281 
L 327.342665 297.054281 
z
" clip-path="url(#p5c3c4c195f)" style="fill: #a7b6c1; stroke: #36434c; stroke-linejoin: miter"/>
   </g>
   <g id="patch_171">
    <path d="M 328.912723 303.64 
L 330.482782 303.64 
L 330.482782 294.609582 
L 328.912723 294.609582 
z
" clip-path="url(#p5c3c4c195f)" style="fill: #a7b6c1; stroke: #36434c; stroke-linejoin: miter"/>
   </g>
   <g id="patch_172">
    <path d="M 330.482782 303.64 
L 332.05284 303.64 
L 332.05284 300.846058 
L 330.482782 300.846058 
z
" clip-path="url(#p5c3c4c195f)" style="fill: #a7b6c1; stroke: #36434c; stroke-linejoin: miter"/>
   </g>
   <g id="patch_173">
    <path d="M 332.05284 303.64 
L 333.622898 303.64 
L 333.622898 300.846058 
L 332.05284 300.846058 
z
" clip-path="url(#p5c3c4c195f)" style="fill: #a7b6c1; stroke: #36434c; stroke-linejoin: miter"/>
   </g>
   <g id="patch_174">
    <path d="M 333.622898 303.64 
L 335.192957 303.64 
L 335.192957 301.943678 
L 333.622898 301.943678 
z
" clip-path="url(#p5c3c4c195f)" style="fill: #a7b6c1; stroke: #36434c; stroke-linejoin: miter"/>
   </g>
   <g id="patch_175">
    <path d="M 335.192957 303.64 
L 336.763015 303.64 
L 336.763015 300.596599 
L 335.192957 300.596599 
z
" clip-path="url(#p5c3c4c195f)" style="fill: #a7b6c1; stroke: #36434c; stroke-linejoin: miter"/>
   </g>
   <g id="patch_176">
    <path d="M 336.763015 303.64 
L 338.333073 303.64 
L 338.333073 301.644327 
L 336.763015 301.644327 
z
" clip-path="url(#p5c3c4c195f)" style="fill: #a7b6c1; stroke: #36434c; stroke-linejoin: miter"/>
   </g>
   <g id="patch_177">
    <path d="M 338.333073 303.64 
L 339.903132 303.64 
L 339.903132 301.744111 
L 338.333073 301.744111 
z
" clip-path="url(#p5c3c4c195f)" style="fill: #a7b6c1; stroke: #36434c; stroke-linejoin: miter"/>
   </g>
   <g id="patch_178">
    <path d="M 339.903132 303.64 
L 341.47319 303.64 
L 341.47319 303.64 
L 339.903132 303.64 
z
" clip-path="url(#p5c3c4c195f)" style="fill: #a7b6c1; stroke: #36434c; stroke-linejoin: miter"/>
   </g>
   <g id="patch_179">
    <path d="M 341.47319 303.64 
L 343.043248 303.64 
L 343.043248 301.44476 
L 341.47319 301.44476 
z
" clip-path="url(#p5c3c4c195f)" style="fill: #a7b6c1; stroke: #36434c; stroke-linejoin: miter"/>
   </g>
   <g id="patch_180">
    <path d="M 343.043248 303.64 
L 344.613307 303.64 
L 344.613307 300.397032 
L 343.043248 300.397032 
z
" clip-path="url(#p5c3c4c195f)" style="fill: #a7b6c1; stroke: #36434c; stroke-linejoin: miter"/>
   </g>
   <g id="patch_181">
    <path d="M 344.613307 303.64 
L 346.183365 303.64 
L 346.183365 295.856877 
L 344.613307 295.856877 
z
" clip-path="url(#p5c3c4c195f)" style="fill: #a7b6c1; stroke: #36434c; stroke-linejoin: miter"/>
   </g>
   <g id="patch_182">
    <path d="M 346.183365 303.64 
L 347.753423 303.64 
L 347.753423 296.904605 
L 346.183365 296.904605 
z
" clip-path="url(#p5c3c4c195f)" style="fill: #a7b6c1; stroke: #36434c; stroke-linejoin: miter"/>
   </g>
   <g id="patch_183">
    <path d="M 347.753423 303.64 
L 349.323481 303.64 
L 349.323481 292.813476 
L 347.753423 292.813476 
z
" clip-path="url(#p5c3c4c195f)" style="fill: #a7b6c1; stroke: #36434c; stroke-linejoin: miter"/>
   </g>
   <g id="patch_184">
    <path d="M 349.323481 303.64 
L 350.89354 303.64 
L 350.89354 289.470725 
L 349.323481 289.470725 
z
" clip-path="url(#p5c3c4c195f)" style="fill: #a7b6c1; stroke: #36434c; stroke-linejoin: miter"/>
   </g>
   <g id="patch_185">
    <path d="M 350.89354 303.64 
L 352.463598 303.64 
L 352.463598 296.954497 
L 350.89354 296.954497 
z
" clip-path="url(#p5c3c4c195f)" style="fill: #a7b6c1; stroke: #36434c; stroke-linejoin: miter"/>
   </g>
   <g id="patch_186">
    <path d="M 352.463598 303.64 
L 354.033656 303.64 
L 354.033656 294.01088 
L 352.463598 294.01088 
z
" clip-path="url(#p5c3c4c195f)" style="fill: #a7b6c1; stroke: #36434c; stroke-linejoin: miter"/>
   </g>
   <g id="patch_187">
    <path d="M 354.033656 303.64 
L 355.603715 303.64 
L 355.603715 298.40136 
L 354.033656 298.40136 
z
" clip-path="url(#p5c3c4c195f)" style="fill: #a7b6c1; stroke: #36434c; stroke-linejoin: miter"/>
   </g>
   <g id="patch_188">
    <path d="M 355.603715 303.64 
L 357.173773 303.64 
L 357.173773 299.000061 
L 355.603715 299.000061 
z
" clip-path="url(#p5c3c4c195f)" style="fill: #a7b6c1; stroke: #36434c; stroke-linejoin: miter"/>
   </g>
   <g id="patch_189">
    <path d="M 357.173773 303.64 
L 358.743831 303.64 
L 358.743831 297.203956 
L 357.173773 297.203956 
z
" clip-path="url(#p5c3c4c195f)" style="fill: #a7b6c1; stroke: #36434c; stroke-linejoin: miter"/>
   </g>
   <g id="patch_190">
    <path d="M 358.743831 303.64 
L 360.31389 303.64 
L 360.31389 297.952333 
L 358.743831 297.952333 
z
" clip-path="url(#p5c3c4c195f)" style="fill: #a7b6c1; stroke: #36434c; stroke-linejoin: miter"/>
   </g>
   <g id="patch_191">
    <path d="M 360.31389 303.64 
L 361.883948 303.64 
L 361.883948 299.698547 
L 360.31389 299.698547 
z
" clip-path="url(#p5c3c4c195f)" style="fill: #a7b6c1; stroke: #36434c; stroke-linejoin: miter"/>
   </g>
   <g id="patch_192">
    <path d="M 361.883948 303.64 
L 363.454006 303.64 
L 363.454006 295.058608 
L 361.883948 295.058608 
z
" clip-path="url(#p5c3c4c195f)" style="fill: #a7b6c1; stroke: #36434c; stroke-linejoin: miter"/>
   </g>
   <g id="patch_193">
    <path d="M 363.454006 303.64 
L 365.024065 303.64 
L 365.024065 296.605254 
L 363.454006 296.605254 
z
" clip-path="url(#p5c3c4c195f)" style="fill: #a7b6c1; stroke: #36434c; stroke-linejoin: miter"/>
   </g>
   <g id="patch_194">
    <path d="M 365.024065 303.64 
L 366.594123 303.64 
L 366.594123 289.969643 
L 365.024065 289.969643 
z
" clip-path="url(#p5c3c4c195f)" style="fill: #a7b6c1; stroke: #36434c; stroke-linejoin: miter"/>
   </g>
   <g id="patch_195">
    <path d="M 366.594123 303.64 
L 368.164181 303.64 
L 368.164181 293.661637 
L 366.594123 293.661637 
z
" clip-path="url(#p5c3c4c195f)" style="fill: #a7b6c1; stroke: #36434c; stroke-linejoin: miter"/>
   </g>
   <g id="patch_196">
    <path d="M 368.164181 303.64 
L 369.73424 303.64 
L 369.73424 294.908933 
L 368.164181 294.908933 
z
" clip-path="url(#p5c3c4c195f)" style="fill: #a7b6c1; stroke: #36434c; stroke-linejoin: miter"/>
   </g>
   <g id="patch_197">
    <path d="M 369.73424 303.64 
L 371.304298 303.64 
L 371.304298 297.403523 
L 369.73424 297.403523 
z
" clip-path="url(#p5c3c4c195f)" style="fill: #a7b6c1; stroke: #36434c; stroke-linejoin: miter"/>
   </g>
   <g id="patch_198">
    <path d="M 371.304298 303.64 
L 372.874356 303.64 
L 372.874356 294.55969 
L 371.304298 294.55969 
z
" clip-path="url(#p5c3c4c195f)" style="fill: #a7b6c1; stroke: #36434c; stroke-linejoin: miter"/>
   </g>
   <g id="patch_199">
    <path d="M 372.874356 303.64 
L 374.444415 303.64 
L 374.444415 296.655146 
L 372.874356 296.655146 
z
" clip-path="url(#p5c3c4c195f)" style="fill: #a7b6c1; stroke: #36434c; stroke-linejoin: miter"/>
   </g>
   <g id="patch_200">
    <path d="M 374.444415 303.64 
L 376.014473 303.64 
L 376.014473 291.566181 
L 374.444415 291.566181 
z
" clip-path="url(#p5c3c4c195f)" style="fill: #a7b6c1; stroke: #36434c; stroke-linejoin: miter"/>
   </g>
   <g id="patch_201">
    <path d="M 376.014473 303.64 
L 377.584531 303.64 
L 377.584531 297.154064 
L 376.014473 297.154064 
z
" clip-path="url(#p5c3c4c195f)" style="fill: #a7b6c1; stroke: #36434c; stroke-linejoin: miter"/>
   </g>
   <g id="patch_202">
    <path d="M 377.584531 303.64 
L 379.15459 303.64 
L 379.15459 296.20612 
L 377.584531 296.20612 
z
" clip-path="url(#p5c3c4c195f)" style="fill: #a7b6c1; stroke: #36434c; stroke-linejoin: miter"/>
   </g>
   <g id="patch_203">
    <path d="M 379.15459 303.64 
L 380.724648 303.64 
L 380.724648 297.154064 
L 379.15459 297.154064 
z
" clip-path="url(#p5c3c4c195f)" style="fill: #a7b6c1; stroke: #36434c; stroke-linejoin: miter"/>
   </g>
   <g id="patch_204">
    <path d="M 380.724648 303.64 
L 382.294706 303.64 
L 382.294706 295.956661 
L 380.724648 295.956661 
z
" clip-path="url(#p5c3c4c195f)" style="fill: #a7b6c1; stroke: #36434c; stroke-linejoin: miter"/>
   </g>
   <g id="patch_205">
    <path d="M 382.294706 303.64 
L 383.864765 303.64 
L 383.864765 289.171374 
L 382.294706 289.171374 
z
" clip-path="url(#p5c3c4c195f)" style="fill: #a7b6c1; stroke: #36434c; stroke-linejoin: miter"/>
   </g>
   <g id="patch_206">
    <path d="M 383.864765 303.64 
L 385.434823 303.64 
L 385.434823 294.809149 
L 383.864765 294.809149 
z
" clip-path="url(#p5c3c4c195f)" style="fill: #a7b6c1; stroke: #36434c; stroke-linejoin: miter"/>
   </g>
   <g id="patch_207">
    <path d="M 385.434823 303.64 
L 387.004881 303.64 
L 387.004881 297.353631 
L 385.434823 297.353631 
z
" clip-path="url(#p5c3c4c195f)" style="fill: #a7b6c1; stroke: #36434c; stroke-linejoin: miter"/>
   </g>
   <g id="patch_208">
    <path d="M 387.004881 303.64 
L 388.57494 303.64 
L 388.57494 292.514126 
L 387.004881 292.514126 
z
" clip-path="url(#p5c3c4c195f)" style="fill: #a7b6c1; stroke: #36434c; stroke-linejoin: miter"/>
   </g>
   <g id="patch_209">
    <path d="M 388.57494 303.64 
L 390.144998 303.64 
L 390.144998 289.869859 
L 388.57494 289.869859 
z
" clip-path="url(#p5c3c4c195f)" style="fill: #a7b6c1; stroke: #36434c; stroke-linejoin: miter"/>
   </g>
   <g id="patch_210">
    <path d="M 390.144998 303.64 
L 391.715056 303.64 
L 391.715056 295.1085 
L 390.144998 295.1085 
z
" clip-path="url(#p5c3c4c195f)" style="fill: #a7b6c1; stroke: #36434c; stroke-linejoin: miter"/>
   </g>
   <g id="patch_211">
    <path d="M 391.715056 303.64 
L 393.285115 303.64 
L 393.285115 294.110664 
L 391.715056 294.110664 
z
" clip-path="url(#p5c3c4c195f)" style="fill: #a7b6c1; stroke: #36434c; stroke-linejoin: miter"/>
   </g>
   <g id="patch_212">
    <path d="M 393.285115 303.64 
L 394.855173 303.64 
L 394.855173 294.809149 
L 393.285115 294.809149 
z
" clip-path="url(#p5c3c4c195f)" style="fill: #a7b6c1; stroke: #36434c; stroke-linejoin: miter"/>
   </g>
   <g id="patch_213">
    <path d="M 394.855173 303.64 
L 396.425231 303.64 
L 396.425231 287.325377 
L 394.855173 287.325377 
z
" clip-path="url(#p5c3c4c195f)" style="fill: #a7b6c1; stroke: #36434c; stroke-linejoin: miter"/>
   </g>
   <g id="patch_214">
    <path d="M 396.425231 303.64 
L 397.995289 303.64 
L 397.995289 292.414342 
L 396.425231 292.414342 
z
" clip-path="url(#p5c3c4c195f)" style="fill: #a7b6c1; stroke: #36434c; stroke-linejoin: miter"/>
   </g>
   <g id="patch_215">
    <path d="M 397.995289 303.64 
L 399.565348 303.64 
L 399.565348 291.765748 
L 397.995289 291.765748 
z
" clip-path="url(#p5c3c4c195f)" style="fill: #a7b6c1; stroke: #36434c; stroke-linejoin: miter"/>
   </g>
   <g id="patch_216">
    <path d="M 399.565348 303.64 
L 401.135406 303.64 
L 401.135406 287.275485 
L 399.565348 287.275485 
z
" clip-path="url(#p5c3c4c195f)" style="fill: #a7b6c1; stroke: #36434c; stroke-linejoin: miter"/>
   </g>
   <g id="patch_217">
    <path d="M 401.135406 303.64 
L 402.705464 303.64 
L 402.705464 289.121482 
L 401.135406 289.121482 
z
" clip-path="url(#p5c3c4c195f)" style="fill: #a7b6c1; stroke: #36434c; stroke-linejoin: miter"/>
   </g>
   <g id="patch_218">
    <path d="M 402.705464 303.64 
L 404.275523 303.64 
L 404.275523 285.828623 
L 402.705464 285.828623 
z
" clip-path="url(#p5c3c4c195f)" style="fill: #a7b6c1; stroke: #36434c; stroke-linejoin: miter"/>
   </g>
   <g id="patch_219">
    <path d="M 404.275523 303.64 
L 405.845581 303.64 
L 405.845581 275.550909 
L 404.275523 275.550909 
z
" clip-path="url(#p5c3c4c195f)" style="fill: #a7b6c1; stroke: #36434c; stroke-linejoin: miter"/>
   </g>
   <g id="patch_220">
    <path d="M 405.845581 303.64 
L 407.415639 303.64 
L 407.415639 275.351342 
L 405.845581 275.351342 
z
" clip-path="url(#p5c3c4c195f)" style="fill: #a7b6c1; stroke: #36434c; stroke-linejoin: miter"/>
   </g>
   <g id="patch_221">
    <path d="M 407.415639 303.64 
L 408.985698 303.64 
L 408.985698 273.455453 
L 407.415639 273.455453 
z
" clip-path="url(#p5c3c4c195f)" style="fill: #a7b6c1; stroke: #36434c; stroke-linejoin: miter"/>
   </g>
   <g id="patch_222">
    <path d="M 408.985698 303.64 
L 410.555756 303.64 
L 410.555756 258.687476 
L 408.985698 258.687476 
z
" clip-path="url(#p5c3c4c195f)" style="fill: #a7b6c1; stroke: #36434c; stroke-linejoin: miter"/>
   </g>
   <g id="patch_223">
    <path d="M 410.555756 303.64 
L 412.125814 303.64 
L 412.125814 263.976008 
L 410.555756 263.976008 
z
" clip-path="url(#p5c3c4c195f)" style="fill: #a7b6c1; stroke: #36434c; stroke-linejoin: miter"/>
   </g>
   <g id="patch_224">
    <path d="M 412.125814 303.64 
L 413.695873 303.64 
L 413.695873 241.774151 
L 412.125814 241.774151 
z
" clip-path="url(#p5c3c4c195f)" style="fill: #a7b6c1; stroke: #36434c; stroke-linejoin: miter"/>
   </g>
   <g id="patch_225">
    <path d="M 413.695873 303.64 
L 415.265931 303.64 
L 415.265931 243.370689 
L 413.695873 243.370689 
z
" clip-path="url(#p5c3c4c195f)" style="fill: #a7b6c1; stroke: #36434c; stroke-linejoin: miter"/>
   </g>
   <g id="patch_226">
    <path d="M 415.265931 303.64 
L 416.835989 303.64 
L 416.835989 226.257797 
L 415.265931 226.257797 
z
" clip-path="url(#p5c3c4c195f)" style="fill: #a7b6c1; stroke: #36434c; stroke-linejoin: miter"/>
   </g>
   <g id="patch_227">
    <path d="M 416.835989 303.64 
L 418.406048 303.64 
L 418.406048 206.550531 
L 416.835989 206.550531 
z
" clip-path="url(#p5c3c4c195f)" style="fill: #a7b6c1; stroke: #36434c; stroke-linejoin: miter"/>
   </g>
   <g id="patch_228">
    <path d="M 418.406048 303.64 
L 419.976106 303.64 
L 419.976106 175.218472 
L 418.406048 175.218472 
z
" clip-path="url(#p5c3c4c195f)" style="fill: #a7b6c1; stroke: #36434c; stroke-linejoin: miter"/>
   </g>
   <g id="patch_229">
    <path d="M 419.976106 303.64 
L 421.546164 303.64 
L 421.546164 149.923322 
L 419.976106 149.923322 
z
" clip-path="url(#p5c3c4c195f)" style="fill: #a7b6c1; stroke: #36434c; stroke-linejoin: miter"/>
   </g>
   <g id="patch_230">
    <path d="M 421.546164 303.64 
L 423.116223 303.64 
L 423.116223 111.406842 
L 421.546164 111.406842 
z
" clip-path="url(#p5c3c4c195f)" style="fill: #a7b6c1; stroke: #36434c; stroke-linejoin: miter"/>
   </g>
   <g id="patch_231">
    <path d="M 423.116223 303.64 
L 424.686281 303.64 
L 424.686281 76.582356 
L 423.116223 76.582356 
z
" clip-path="url(#p5c3c4c195f)" style="fill: #a7b6c1; stroke: #36434c; stroke-linejoin: miter"/>
   </g>
   <g id="patch_232">
    <path d="M 424.686281 303.64 
L 426.256339 303.64 
L 426.256339 41.458519 
L 424.686281 41.458519 
z
" clip-path="url(#p5c3c4c195f)" style="fill: #a7b6c1; stroke: #36434c; stroke-linejoin: miter"/>
   </g>
   <g id="patch_233">
    <path d="M 426.256339 303.64 
L 427.826398 303.64 
L 427.826398 24.744762 
L 426.256339 24.744762 
z
" clip-path="url(#p5c3c4c195f)" style="fill: #a7b6c1; stroke: #36434c; stroke-linejoin: miter"/>
   </g>
   <g id="patch_234">
    <path d="M 427.826398 303.64 
L 429.396456 303.64 
L 429.396456 184.997267 
L 427.826398 184.997267 
z
" clip-path="url(#p5c3c4c195f)" style="fill: #a7b6c1; stroke: #36434c; stroke-linejoin: miter"/>
   </g>
   <g id="line2d_23">
    <path d="M 391.130887 303.64 
L 391.130887 10.8 
" clip-path="url(#p5c3c4c195f)" style="fill: none; stroke: #a154a1; stroke-width: 1.5; stroke-linecap: square"/>
   </g>
  </g>
 </g>
 <defs>
  <clipPath id="p5c3c4c195f">
   <rect x="57.44" y="10.8" width="392.56" height="292.84"/>
  </clipPath>
 </defs>
</svg>
